<svg width="250" height="115" viewBox="0 0 250 115" fill="none" xmlns="http://www.w3.org/2000/svg">
<g clip-path="url(#clip0_9_341)">
<rect x="8.97827" y="-2.18018" width="166.196" height="2" transform="rotate(30.527 8.97827 -2.18018)" fill="#0F52BA"/>
<rect x="100.75" y="-6.00928" width="61.437" height="2" transform="rotate(30.8019 100.75 -6.00928)" fill="#0F52BA"/>
<rect x="121.52" y="-4.70142" width="56.8169" height="2" transform="rotate(30.4677 121.52 -4.70142)" fill="#0F52BA"/>
<path d="M74.952 50.186H77.514V57.844H81.672V60H74.952V50.186Z" fill="#0F52BA"/>
<rect x="152" y="90" width="58" height="1" fill="#0F52BA"/>
<path d="M175.972 95.186H178.73L180.942 103.418H180.382L182.594 95.186H185.1L187.34 103.418H186.78L188.978 95.186H191.61L188.292 105H185.66L183.504 97.23L184.092 97.244L181.908 105H179.276L175.972 95.186Z" fill="#0F52BA"/>
<rect x="210" y="88" width="1" height="5" fill="#0F52BA"/>
<rect x="151" y="88" width="1" height="5" fill="#0F52BA"/>
<rect x="151" y="24" width="20" height="60" fill="#0F52BA"/>
<rect x="171" y="64" width="40" height="20" fill="#0F52BA"/>
<rect x="211" y="64" width="21" height="1" fill="#0F52BA"/>
<rect x="211" y="83" width="21" height="1" fill="#0F52BA"/>
<path d="M213.098 69.186H221.512V71.258H218.572V79H216.01V71.258H213.098V69.186ZM225.163 69.186H229.615V79H227.053V70.138L228.173 71.258H225.163V69.186Z" fill="#0F52BA"/>
<rect x="151" y="-5" width="1" height="29" fill="#0F52BA"/>
<rect x="170" y="-4" width="1" height="29" fill="#0F52BA"/>
<path d="M153.098 3.186H161.512V5.258H158.572V13H156.01V5.258H153.098V3.186ZM165.688 7.652C165.968 7.36267 166.196 7.07333 166.374 6.784C166.551 6.48533 166.64 6.22867 166.64 6.014C166.64 5.74333 166.542 5.53333 166.346 5.384C166.15 5.23467 165.874 5.16 165.52 5.16C165.118 5.16 164.68 5.272 164.204 5.496C163.728 5.72 163.266 6.01867 162.818 6.392L161.838 4.544C162.472 4.08667 163.13 3.732 163.812 3.48C164.493 3.21867 165.193 3.088 165.912 3.088C166.574 3.088 167.162 3.19533 167.676 3.41C168.189 3.61533 168.59 3.90933 168.88 4.292C169.178 4.67467 169.328 5.12733 169.328 5.65C169.328 6.182 169.146 6.72333 168.782 7.274C168.427 7.81533 167.974 8.36133 167.424 8.912L164.624 11.754L164.288 10.97H169.608V13H162.132L162.118 11.334L165.688 7.652Z" fill="#0F52BA"/>
<rect x="238" y="24" width="59" height="1" transform="rotate(90 238 24)" fill="#0F52BA"/>
<path d="M225.952 45.186H228.514V49.204H232.476V45.186H235.038V55H232.476V51.22H228.514V55H225.952V45.186Z" fill="#0F52BA"/>
<rect x="240" y="83" width="1" height="5" transform="rotate(90 240 83)" fill="#0F52BA"/>
<rect x="240" y="24" width="1" height="5" transform="rotate(90 240 24)" fill="#0F52BA"/>
</g>
<defs>
<clipPath id="clip0_9_341">
<rect width="250" height="115" fill="white"/>
</clipPath>
</defs>
</svg>
