<svg width="250" height="115" viewBox="0 0 250 115" fill="none" xmlns="http://www.w3.org/2000/svg">
<g clip-path="url(#clip0_9_408)">
<rect x="7.84033" y="-6.41333" width="164.999" height="2" transform="rotate(32.915 7.84033 -6.41333)" fill="#0F52BA"/>
<rect x="114.032" y="-4.90479" width="39.6037" height="2" transform="rotate(32.6458 114.032 -4.90479)" fill="#0F52BA"/>
<path d="M68.952 51.186H71.514V58.844H75.672V61H68.952V51.186Z" fill="#0F52BA"/>
<rect x="146" y="91" width="59" height="1" fill="#0F52BA"/>
<path d="M168.972 96.186H171.73L173.942 104.418H173.382L175.594 96.186H178.1L180.34 104.418H179.78L181.978 96.186H184.61L181.292 106H178.66L176.504 98.23L177.092 98.244L174.908 106H172.276L168.972 96.186Z" fill="#0F52BA"/>
<rect x="204" y="89" width="1" height="5" fill="#0F52BA"/>
<rect x="145" y="89" width="1" height="5" fill="#0F52BA"/>
<rect x="145" y="15" width="15" height="70" fill="#0F52BA"/>
<rect x="160" y="70" width="45" height="15" fill="#0F52BA"/>
<rect x="160" y="15" width="45" height="15" fill="#0F52BA"/>
<rect x="190" y="30" width="15" height="10" fill="#0F52BA"/>
<rect x="190" y="60" width="15" height="10" fill="#0F52BA"/>
<rect x="228" y="16" width="68" height="1" transform="rotate(90 228 16)" fill="#0F52BA"/>
<path d="M230.952 45.186H233.514V49.204H237.476V45.186H240.038V55H237.476V51.22H233.514V55H230.952V45.186Z" fill="#0F52BA"/>
<rect x="230" y="84" width="1" height="5" transform="rotate(90 230 84)" fill="#0F52BA"/>
<rect x="230" y="15" width="1" height="5" transform="rotate(90 230 15)" fill="#0F52BA"/>
<rect x="176.703" y="-3.17261" width="33.718" height="2" transform="rotate(32.7313 176.703 -3.17261)" fill="#0F52BA"/>
<path d="M203.316 48.266C202.971 47.9207 202.565 47.6547 202.098 47.468C201.641 47.272 201.183 47.174 200.726 47.174C200.325 47.174 199.956 47.2487 199.62 47.398C199.284 47.5473 198.99 47.7527 198.738 48.014C198.486 48.2753 198.29 48.5833 198.15 48.938C198.019 49.2927 197.954 49.6753 197.954 50.086C197.954 50.506 198.024 50.8933 198.164 51.248C198.304 51.6027 198.5 51.9153 198.752 52.186C199.004 52.4473 199.298 52.6527 199.634 52.802C199.979 52.9513 200.353 53.026 200.754 53.026C201.109 53.026 201.51 52.942 201.958 52.774C202.415 52.5967 202.831 52.368 203.204 52.088L204.66 53.894C204.315 54.1367 203.909 54.356 203.442 54.552C202.985 54.748 202.504 54.902 202 55.014C201.505 55.126 201.029 55.182 200.572 55.182C199.825 55.182 199.13 55.056 198.486 54.804C197.851 54.5427 197.296 54.1833 196.82 53.726C196.344 53.2687 195.975 52.7273 195.714 52.102C195.453 51.4767 195.322 50.8047 195.322 50.086C195.322 49.3673 195.457 48.7 195.728 48.084C195.999 47.468 196.377 46.9313 196.862 46.474C197.357 46.0167 197.931 45.662 198.584 45.41C199.247 45.158 199.965 45.032 200.74 45.032C201.225 45.032 201.711 45.0927 202.196 45.214C202.691 45.3353 203.157 45.5033 203.596 45.718C204.044 45.9327 204.436 46.194 204.772 46.502L203.316 48.266ZM202.448 50.002H204.66V53.894H202.448V50.002Z" fill="#0F52BA"/>
<rect x="190" y="40" width="5" height="1" fill="#0F52BA"/>
<rect x="190" y="59" width="5" height="1" fill="#0F52BA"/>
<rect x="192" y="41" width="1" height="18" fill="#0F52BA"/>
<rect x="204" y="70" width="14" height="1" fill="#0F52BA"/>
<rect x="204" y="84" width="14" height="1" fill="#0F52BA"/>
<path d="M209.098 73.186H217.512V75.258H214.572V83H212.01V75.258H209.098V73.186Z" fill="#0F52BA"/>
</g>
<defs>
<clipPath id="clip0_9_408">
<rect width="250" height="115" fill="white"/>
</clipPath>
</defs>
</svg>
