<svg width="250" height="115" viewBox="0 0 250 115" fill="none" xmlns="http://www.w3.org/2000/svg">
<g clip-path="url(#clip0_9_364)">
<rect x="8.93298" y="-4.71094" width="167.492" height="2" transform="rotate(31.2926 8.93298 -4.71094)" fill="#0F52BA"/>
<rect x="108.995" y="-10" width="54.6788" height="2" transform="rotate(29.8256 108.995 -10)" fill="#0F52BA"/>
<path d="M74.952 47.186H77.514V54.844H81.672V57H74.952V47.186Z" fill="#0F52BA"/>
<rect x="152" y="90" width="59" height="1" fill="#0F52BA"/>
<path d="M174.972 95.186H177.73L179.942 103.418H179.382L181.594 95.186H184.1L186.34 103.418H185.78L187.978 95.186H190.61L187.292 105H184.66L182.504 97.23L183.092 97.244L180.908 105H178.276L174.972 95.186Z" fill="#0F52BA"/>
<rect x="210" y="88" width="1" height="5" fill="#0F52BA"/>
<rect x="151" y="88" width="1" height="5" fill="#0F52BA"/>
<rect x="151" y="14" width="20" height="70" fill="#0F52BA"/>
<rect x="171" y="64" width="40" height="20" fill="#0F52BA"/>
<rect x="171" y="14" width="40" height="20" fill="#0F52BA"/>
<rect x="211" y="64" width="21" height="1" fill="#0F52BA"/>
<rect x="211" y="83" width="21" height="1" fill="#0F52BA"/>
<path d="M213.098 69.186H221.512V71.258H218.572V79H216.01V71.258H213.098V69.186ZM225.163 69.186H229.615V79H227.053V70.138L228.173 71.258H225.163V69.186Z" fill="#0F52BA"/>
<rect x="151" y="-5" width="1" height="29" fill="#0F52BA"/>
<rect x="170" y="-4" width="1" height="29" fill="#0F52BA"/>
<path d="M153.098 2.186H161.512V4.258H158.572V12H156.01V4.258H153.098V2.186ZM165.688 6.652C165.968 6.36267 166.196 6.07333 166.374 5.784C166.551 5.48533 166.64 5.22867 166.64 5.014C166.64 4.74333 166.542 4.53333 166.346 4.384C166.15 4.23467 165.874 4.16 165.52 4.16C165.118 4.16 164.68 4.272 164.204 4.496C163.728 4.72 163.266 5.01867 162.818 5.392L161.838 3.544C162.472 3.08667 163.13 2.732 163.812 2.48C164.493 2.21867 165.193 2.088 165.912 2.088C166.574 2.088 167.162 2.19533 167.676 2.41C168.189 2.61533 168.59 2.90933 168.88 3.292C169.178 3.67467 169.328 4.12733 169.328 4.65C169.328 5.182 169.146 5.72333 168.782 6.274C168.427 6.81533 167.974 7.36133 167.424 7.912L164.624 10.754L164.288 9.97H169.608V12H162.132L162.118 10.334L165.688 6.652Z" fill="#0F52BA"/>
<rect x="238" y="15" width="68" height="1" transform="rotate(90 238 15)" fill="#0F52BA"/>
<path d="M225.952 41.186H228.514V45.204H232.476V41.186H235.038V51H232.476V47.22H228.514V51H225.952V41.186Z" fill="#0F52BA"/>
<rect x="240" y="83" width="1" height="5" transform="rotate(90 240 83)" fill="#0F52BA"/>
<rect x="240" y="14" width="1" height="5" transform="rotate(90 240 14)" fill="#0F52BA"/>
<rect x="169.664" y="-7.48584" width="46.5359" height="2" transform="rotate(27.5284 169.664 -7.48584)" fill="#0F52BA"/>
</g>
<defs>
<clipPath id="clip0_9_364">
<rect width="250" height="115" fill="white"/>
</clipPath>
</defs>
</svg>
