<svg width="250" height="115" viewBox="0 0 250 115" fill="none" xmlns="http://www.w3.org/2000/svg">
<g clip-path="url(#clip0_9_311)">
<rect x="24.4543" y="-5.44604" width="168.863" height="2" transform="rotate(25.6362 24.4543 -5.44604)" fill="#0F52BA"/>
<rect x="-0.985352" y="-7.24829" width="202.418" height="2" transform="rotate(25.9487 -0.985352 -7.24829)" fill="#0F52BA"/>
<rect x="109.503" y="-2.93481" width="74.5699" height="2" transform="rotate(24.2732 109.503 -2.93481)" fill="#0F52BA"/>
<rect x="147.865" y="-2.95312" width="42.2203" height="2" transform="rotate(23.5655 147.865 -2.95312)" fill="#0F52BA"/>
<rect x="190.194" y="-6.46606" width="44.3431" height="2" transform="rotate(28.7404 190.194 -6.46606)" fill="#0F52BA"/>
<path d="M93.952 50.186H96.514V57.844H100.672V60H93.952V50.186Z" fill="#0F52BA"/>
<rect x="171" y="90" width="68" height="1" fill="#0F52BA"/>
<path d="M198.972 95.186H201.73L203.942 103.418H203.382L205.594 95.186H208.1L210.34 103.418H209.78L211.978 95.186H214.61L211.292 105H208.66L206.504 97.23L207.092 97.244L204.908 105H202.276L198.972 95.186Z" fill="#0F52BA"/>
<rect x="239" y="88" width="1" height="5" fill="#0F52BA"/>
<rect x="170" y="88" width="1" height="5" fill="#0F52BA"/>
<rect x="170" y="14" width="70" height="70" rx="16" fill="#0F52BA"/>
<path d="M166.362 9.186C167.669 9.186 168.677 9.48933 169.386 10.096C170.095 10.6933 170.45 11.538 170.45 12.63C170.45 13.778 170.095 14.674 169.386 15.318C168.677 15.9527 167.669 16.27 166.362 16.27H164.514V19H161.952V9.186H166.362ZM166.362 14.254C166.894 14.254 167.3 14.1233 167.58 13.862C167.869 13.6007 168.014 13.2133 168.014 12.7C168.014 12.2053 167.869 11.832 167.58 11.58C167.3 11.328 166.894 11.202 166.362 11.202H164.514V14.254H166.362ZM165.914 15.332H168.406L170.744 19H167.846L165.914 15.332Z" fill="#0F52BA"/>
</g>
<defs>
<clipPath id="clip0_9_311">
<rect width="250" height="115" fill="white"/>
</clipPath>
</defs>
</svg>
