<svg width="250" height="115" viewBox="0 0 250 115" fill="none" xmlns="http://www.w3.org/2000/svg">
<g clip-path="url(#clip0_9_386)">
<rect width="160.38" height="1.91927" transform="matrix(0.843112 0.537738 -0.573131 0.819464 7.88867 -3.82739)" fill="#0F52BA"/>
<rect width="51.4885" height="1.9143" transform="matrix(0.848366 0.529409 -0.56163 0.827388 104.075 -6)" fill="#0F52BA"/>
<path d="M71.952 52.186H74.514V59.844H78.672V62H71.952V52.186Z" fill="#0F52BA"/>
<rect x="143" y="90" width="59" height="1" fill="#0F52BA"/>
<path d="M165.972 95.186H168.73L170.942 103.418H170.382L172.594 95.186H175.1L177.34 103.418H176.78L178.978 95.186H181.61L178.292 105H175.66L173.504 97.23L174.092 97.244L171.908 105H169.276L165.972 95.186Z" fill="#0F52BA"/>
<rect x="201" y="88" width="1" height="5" fill="#0F52BA"/>
<rect x="142" y="88" width="1" height="5" fill="#0F52BA"/>
<rect x="142" y="18" width="16" height="66" fill="#0F52BA"/>
<rect x="157" y="69" width="45" height="15" fill="#0F52BA"/>
<rect x="157" y="18" width="45" height="15" fill="#0F52BA"/>
<rect x="157" y="43" width="45" height="16" fill="#0F52BA"/>
<rect x="202" y="69" width="21" height="1" fill="#0F52BA"/>
<rect x="202" y="43" width="21" height="1" fill="#0F52BA"/>
<rect x="202" y="83" width="21" height="1" fill="#0F52BA"/>
<rect x="202" y="58" width="21" height="1" fill="#0F52BA"/>
<path d="M204.098 72.186H212.512V74.258H209.572V82H207.01V74.258H204.098V72.186ZM216.163 72.186H220.615V82H218.053V73.138L219.173 74.258H216.163V72.186Z" fill="#0F52BA"/>
<path d="M204.098 46.186H212.512V48.258H209.572V56H207.01V48.258H204.098V46.186ZM216.688 50.652C216.968 50.3627 217.196 50.0733 217.374 49.784C217.551 49.4853 217.64 49.2287 217.64 49.014C217.64 48.7433 217.542 48.5333 217.346 48.384C217.15 48.2347 216.874 48.16 216.52 48.16C216.118 48.16 215.68 48.272 215.204 48.496C214.728 48.72 214.266 49.0187 213.818 49.392L212.838 47.544C213.472 47.0867 214.13 46.732 214.812 46.48C215.493 46.2187 216.193 46.088 216.912 46.088C217.574 46.088 218.162 46.1953 218.676 46.41C219.189 46.6153 219.59 46.9093 219.88 47.292C220.178 47.6747 220.328 48.1273 220.328 48.65C220.328 49.182 220.146 49.7233 219.782 50.274C219.427 50.8153 218.974 51.3613 218.424 51.912L215.624 54.754L215.288 53.97H220.608V56H213.132L213.118 54.334L216.688 50.652Z" fill="#0F52BA"/>
<rect x="229" y="19" width="64" height="1" transform="rotate(90 229 19)" fill="#0F52BA"/>
<path d="M230.952 44.186H233.514V48.204H237.476V44.186H240.038V54H237.476V50.22H233.514V54H230.952V44.186Z" fill="#0F52BA"/>
<rect x="231" y="83" width="1" height="5" transform="rotate(90 231 83)" fill="#0F52BA"/>
<rect x="231" y="18" width="1" height="5" transform="rotate(90 231 18)" fill="#0F52BA"/>
<rect width="45.2702" height="1.91608" transform="matrix(0.832287 0.554345 -0.587221 0.809427 164.125 -7)" fill="#0F52BA"/>
</g>
<defs>
<clipPath id="clip0_9_386">
<rect width="250" height="115" fill="white"/>
</clipPath>
</defs>
</svg>
