<svg width="250" height="115" viewBox="0 0 250 115" fill="none" xmlns="http://www.w3.org/2000/svg">
<g clip-path="url(#clip0_5_133)">
<rect x="4.03625" y="-5.25024" width="198.656" height="2" transform="rotate(27.0845 4.03625 -5.25024)" fill="#0F52BA"/>
<rect x="132.178" y="-7.27588" width="55.7362" height="2" transform="rotate(26.9216 132.178 -7.27588)" fill="#0F52BA"/>
<rect x="169.719" y="-7.65833" width="55.9942" height="2" transform="rotate(26.1225 169.719 -7.65833)" fill="#0F52BA"/>
<rect x="48.7847" y="-6.89691" width="129.072" height="2" transform="rotate(26.9216 48.7847 -6.89691)" fill="#0F52BA"/>
<path d="M92.952 48.186H95.514V55.844H99.672V58H92.952V48.186Z" fill="#0F52BA"/>
<rect x="171" y="92" width="68" height="1" fill="#0F52BA"/>
<path d="M204.18 95.186C204.955 95.186 205.659 95.3073 206.294 95.55C206.938 95.7833 207.489 96.1193 207.946 96.558C208.413 96.9873 208.772 97.5007 209.024 98.098C209.276 98.6953 209.402 99.358 209.402 100.086C209.402 100.823 209.271 101.491 209.01 102.088C208.758 102.685 208.399 103.203 207.932 103.642C207.465 104.081 206.905 104.417 206.252 104.65C205.599 104.883 204.875 105 204.082 105H199.952V95.186H204.18ZM204.25 102.956C204.623 102.956 204.964 102.891 205.272 102.76C205.58 102.62 205.846 102.424 206.07 102.172C206.303 101.92 206.481 101.621 206.602 101.276C206.723 100.921 206.784 100.534 206.784 100.114C206.784 99.6847 206.719 99.2973 206.588 98.952C206.457 98.5973 206.271 98.294 206.028 98.042C205.795 97.7807 205.515 97.5847 205.188 97.454C204.871 97.314 204.516 97.244 204.124 97.244H202.514V102.956H204.25Z" fill="#0F52BA"/>
<rect x="239" y="90" width="1" height="5" fill="#0F52BA"/>
<rect x="170" y="90" width="1" height="5" fill="#0F52BA"/>
<path d="M160 52L180 17H220.001L240 52L220.001 87H180L160 52Z" fill="#0F52BA"/>
<circle cx="200" cy="52" r="25" fill="white" fill-opacity="0.9"/>
<path d="M192.952 38.186H195.514V48H192.952V38.186ZM201.651 38.186C202.425 38.186 203.13 38.3073 203.765 38.55C204.409 38.7833 204.959 39.1193 205.417 39.558C205.883 39.9873 206.243 40.5007 206.495 41.098C206.747 41.6953 206.873 42.358 206.873 43.086C206.873 43.8233 206.742 44.4907 206.481 45.088C206.229 45.6853 205.869 46.2033 205.403 46.642C204.936 47.0807 204.376 47.4167 203.723 47.65C203.069 47.8833 202.346 48 201.553 48H197.423V38.186H201.651ZM201.721 45.956C202.094 45.956 202.435 45.8907 202.743 45.76C203.051 45.62 203.317 45.424 203.541 45.172C203.774 44.92 203.951 44.6213 204.073 44.276C204.194 43.9213 204.255 43.534 204.255 43.114C204.255 42.6847 204.189 42.2973 204.059 41.952C203.928 41.5973 203.741 41.294 203.499 41.042C203.265 40.7807 202.985 40.5847 202.659 40.454C202.341 40.314 201.987 40.244 201.595 40.244H199.985V45.956H201.721Z" fill="#0F52BA"/>
<rect x="176" y="52" width="49" height="1" fill="#0F52BA"/>
<rect x="224" y="50" width="1" height="5" fill="#0F52BA"/>
<rect x="175" y="50" width="1" height="5" fill="#0F52BA"/>
</g>
<defs>
<clipPath id="clip0_5_133">
<rect width="250" height="115" fill="white"/>
</clipPath>
</defs>
</svg>
