<svg width="250" height="115" viewBox="0 0 250 115" fill="none" xmlns="http://www.w3.org/2000/svg">
<g clip-path="url(#clip0_9_466)">
<rect x="23.7606" y="-8.88892" width="136.645" height="2" transform="rotate(36.8664 23.7606 -8.88892)" fill="#0F52BA"/>
<rect x="7.21791" y="-4.60132" width="152" height="2" transform="rotate(37.2441 7.21791 -4.60132)" fill="#0F52BA"/>
<rect x="102.936" y="-6.26465" width="36.202" height="2" transform="rotate(38.6061 102.936 -6.26465)" fill="#0F52BA"/>
<rect x="86.0213" y="-2.43237" width="54.1348" height="2" transform="rotate(38.727 86.0213 -2.43237)" fill="#0F52BA"/>
<path d="M67.952 67.186H70.514V74.844H74.672V77H67.952V67.186Z" fill="#0F52BA"/>
<rect x="128" y="93" width="78" height="1" fill="#0F52BA"/>
<path d="M160.972 95.186H163.73L165.942 103.418H165.382L167.594 95.186H170.1L172.34 103.418H171.78L173.978 95.186H176.61L173.292 105H170.66L168.504 97.23L169.092 97.244L166.908 105H164.276L160.972 95.186Z" fill="#0F52BA"/>
<rect x="206" y="91" width="1" height="5" fill="#0F52BA"/>
<rect x="127" y="91" width="1" height="5" fill="#0F52BA"/>
<rect x="157" y="13" width="20" height="76" fill="#0F52BA"/>
<rect x="177" y="69" width="30" height="20" fill="#0F52BA"/>
<rect x="177" y="13" width="30" height="20" fill="#0F52BA"/>
<rect x="127" y="69" width="30" height="20" fill="#0F52BA"/>
<rect x="127" y="13" width="30" height="20" fill="#0F52BA"/>
<rect x="206" y="69" width="21" height="1" fill="#0F52BA"/>
<rect x="207" y="88" width="21" height="1" fill="#0F52BA"/>
<path d="M209.098 74.186H217.512V76.258H214.572V84H212.01V76.258H209.098V74.186ZM221.163 74.186H225.615V84H223.053V75.138L224.173 76.258H221.163V74.186Z" fill="#0F52BA"/>
<rect x="157" y="-4" width="1" height="29" fill="#0F52BA"/>
<rect x="176" y="-3" width="1" height="29" fill="#0F52BA"/>
<path d="M159.098 2.186H167.512V4.258H164.572V12H162.01V4.258H159.098V2.186ZM171.688 6.652C171.968 6.36267 172.196 6.07333 172.374 5.784C172.551 5.48533 172.64 5.22867 172.64 5.014C172.64 4.74333 172.542 4.53333 172.346 4.384C172.15 4.23467 171.874 4.16 171.52 4.16C171.118 4.16 170.68 4.272 170.204 4.496C169.728 4.72 169.266 5.01867 168.818 5.392L167.838 3.544C168.472 3.08667 169.13 2.732 169.812 2.48C170.493 2.21867 171.193 2.088 171.912 2.088C172.574 2.088 173.162 2.19533 173.676 2.41C174.189 2.61533 174.59 2.90933 174.88 3.292C175.178 3.67467 175.328 4.12733 175.328 4.65C175.328 5.182 175.146 5.72333 174.782 6.274C174.427 6.81533 173.974 7.36133 173.424 7.912L170.624 10.754L170.288 9.97H175.608V12H168.132L168.118 10.334L171.688 6.652Z" fill="#0F52BA"/>
<rect x="238" y="14" width="74" height="1" transform="rotate(90 238 14)" fill="#0F52BA"/>
<path d="M224.952 46.186H227.514V50.204H231.476V46.186H234.038V56H231.476V52.22H227.514V56H224.952V46.186Z" fill="#0F52BA"/>
<rect x="240" y="88" width="1" height="5" transform="rotate(90 240 88)" fill="#0F52BA"/>
<rect x="240" y="13" width="1" height="5" transform="rotate(90 240 13)" fill="#0F52BA"/>
<rect x="182.507" y="-7.29297" width="31.8181" height="2" transform="rotate(39.676 182.507 -7.29297)" fill="#0F52BA"/>
</g>
<defs>
<clipPath id="clip0_9_466">
<rect width="250" height="115" fill="white"/>
</clipPath>
</defs>
</svg>
