<svg width="250" height="115" viewBox="0 0 250 115" fill="none" xmlns="http://www.w3.org/2000/svg">
<g clip-path="url(#clip0_5_94)">
<rect x="12.2456" y="-5.3045" width="200.363" height="2" transform="rotate(26.1066 12.2456 -5.3045)" fill="#0F52BA"/>
<rect x="144.906" y="-9" width="53.5507" height="2" transform="rotate(26.9216 144.906 -9)" fill="#0F52BA"/>
<rect x="86.1204" y="-8.02197" width="97.1547" height="2" transform="rotate(27.2817 86.1204 -8.02197)" fill="#0F52BA"/>
<rect x="170.881" y="-9" width="55.3902" height="2" transform="rotate(26.1225 170.881 -9)" fill="#0F52BA"/>
<rect x="31.5145" y="-6.17102" width="158.108" height="2" transform="rotate(26.1265 31.5145 -6.17102)" fill="#0F52BA"/>
<path d="M105.952 47.186H108.514V54.844H112.672V57H105.952V47.186Z" fill="#0F52BA"/>
<rect x="172" y="91" width="68" height="1" fill="#0F52BA"/>
<path d="M206.18 95.186C206.955 95.186 207.659 95.3073 208.294 95.55C208.938 95.7833 209.489 96.1193 209.946 96.558C210.413 96.9873 210.772 97.5007 211.024 98.098C211.276 98.6953 211.402 99.358 211.402 100.086C211.402 100.823 211.271 101.491 211.01 102.088C210.758 102.685 210.399 103.203 209.932 103.642C209.465 104.081 208.905 104.417 208.252 104.65C207.599 104.883 206.875 105 206.082 105H201.952V95.186H206.18ZM206.25 102.956C206.623 102.956 206.964 102.891 207.272 102.76C207.58 102.62 207.846 102.424 208.07 102.172C208.303 101.92 208.481 101.621 208.602 101.276C208.723 100.921 208.784 100.534 208.784 100.114C208.784 99.6847 208.719 99.2973 208.588 98.952C208.457 98.5973 208.271 98.294 208.028 98.042C207.795 97.7807 207.515 97.5847 207.188 97.454C206.871 97.314 206.516 97.244 206.124 97.244H204.514V102.956H206.25Z" fill="#0F52BA"/>
<rect x="240" y="89" width="1" height="5" fill="#0F52BA"/>
<rect x="171" y="89" width="1" height="5" fill="#0F52BA"/>
<path d="M219.593 15C220.172 15.0001 220.728 15.2298 221.138 15.6388L240.361 34.8625C240.77 35.2725 241 35.8278 241 36.4069V63.5931C241 64.1722 240.77 64.7275 240.361 65.1375L221.138 84.3613C220.728 84.7702 220.172 84.9999 219.593 85H192.407C191.828 84.9999 191.272 84.7702 190.862 84.3613L171.639 65.1375C171.23 64.7275 171 64.1722 171 63.5931V36.4069C171 35.8278 171.23 35.2725 171.639 34.8625L190.862 15.6388C191.272 15.2298 191.828 15.0001 192.407 15H219.593Z" fill="#0F52BA"/>
</g>
<defs>
<clipPath id="clip0_5_94">
<rect width="250" height="115" fill="white"/>
</clipPath>
</defs>
</svg>
