<svg width="250" height="115" viewBox="0 0 250 115" fill="none" xmlns="http://www.w3.org/2000/svg">
<g clip-path="url(#clip0_9_272)">
<rect width="200.922" height="2" transform="matrix(0.877415 0.479731 0.479731 -0.877415 -18.0285 -15.0918)" fill="#0F52BA"/>
<rect x="60.985" y="-6.95898" width="125.434" height="2" transform="rotate(28.9648 60.985 -6.95898)" fill="#0F52BA"/>
<rect x="107.089" y="-8.45947" width="120.18" height="2" transform="rotate(30.8337 107.089 -8.45947)" fill="#0F52BA"/>
<path d="M67.952 50.186H70.514V57.844H74.672V60H67.952V50.186Z" fill="#0F52BA"/>
<rect x="150" y="90" width="69" height="1" fill="#0F52BA"/>
<rect x="228" y="50" width="33" height="1" transform="rotate(90 228 50)" fill="#0F52BA"/>
<path d="M178.972 95.186H181.73L183.942 103.418H183.382L185.594 95.186H188.1L190.34 103.418H189.78L191.978 95.186H194.61L191.292 105H188.66L186.504 97.23L187.092 97.244L184.908 105H182.276L178.972 95.186Z" fill="#0F52BA"/>
<path d="M230.952 61.186H233.514V65.204H237.476V61.186H240.038V71H237.476V67.22H233.514V71H230.952V61.186Z" fill="#0F52BA"/>
<rect x="218" y="88" width="1" height="5" fill="#0F52BA"/>
<rect x="230" y="83" width="1" height="5" transform="rotate(90 230 83)" fill="#0F52BA"/>
<rect x="149" y="88" width="1" height="5" fill="#0F52BA"/>
<rect x="230" y="49" width="1" height="5" transform="rotate(90 230 49)" fill="#0F52BA"/>
<path d="M181.117 46.0769C166.896 46.6398 154.541 52.6247 150.452 60.9207C149.326 63.2317 149 64.5057 149 67.0241C149 69.5129 149.296 70.7869 150.452 73.1276C153.918 80.268 163.222 85.5419 175.903 87.5566C178.48 87.9714 186.273 88.1492 189.354 87.8529C209.205 85.9863 222.301 74.5201 218.182 62.6391C215.279 54.3135 204.257 47.8546 190.332 46.3139C187.25 45.988 184.821 45.9287 181.117 46.0769Z" fill="#0F52BA"/>
</g>
<defs>
<clipPath id="clip0_9_272">
<rect width="250" height="115" fill="white"/>
</clipPath>
</defs>
</svg>
