<svg width="250" height="115" viewBox="0 0 250 115" fill="none" xmlns="http://www.w3.org/2000/svg">
<g clip-path="url(#clip0_5_119)">
<rect x="7.83558" y="-4.88324" width="200" height="2" transform="rotate(25.5627 7.83558 -4.88324)" fill="#0F52BA"/>
<rect x="165.688" y="-4.61462" width="58.3376" height="2" transform="rotate(25.6509 165.688 -4.61462)" fill="#0F52BA"/>
<path d="M98.952 47.186H101.514V54.844H105.672V57H98.952V47.186Z" fill="#0F52BA"/>
<rect x="171" y="91" width="68" height="1" fill="#0F52BA"/>
<path d="M199.628 95.032C200.393 95.032 201.093 95.158 201.728 95.41C202.372 95.662 202.932 96.0167 203.408 96.474C203.893 96.9313 204.267 97.468 204.528 98.084C204.799 98.6907 204.934 99.3533 204.934 100.072C204.934 100.8 204.799 101.477 204.528 102.102C204.267 102.718 203.893 103.259 203.408 103.726C202.932 104.183 202.372 104.543 201.728 104.804C201.093 105.056 200.393 105.182 199.628 105.182C198.872 105.182 198.172 105.056 197.528 104.804C196.884 104.543 196.319 104.183 195.834 103.726C195.358 103.259 194.985 102.718 194.714 102.102C194.453 101.477 194.322 100.8 194.322 100.072C194.322 99.3533 194.453 98.686 194.714 98.07C194.985 97.454 195.358 96.922 195.834 96.474C196.319 96.0167 196.884 95.662 197.528 95.41C198.172 95.158 198.872 95.032 199.628 95.032ZM199.656 97.174C199.292 97.174 198.942 97.2487 198.606 97.398C198.279 97.538 197.99 97.7433 197.738 98.014C197.495 98.2753 197.304 98.5833 197.164 98.938C197.024 99.2833 196.954 99.666 196.954 100.086C196.954 100.497 197.024 100.884 197.164 101.248C197.304 101.603 197.5 101.915 197.752 102.186C198.004 102.447 198.293 102.653 198.62 102.802C198.947 102.951 199.292 103.026 199.656 103.026C200.02 103.026 200.361 102.951 200.678 102.802C201.005 102.653 201.289 102.447 201.532 102.186C201.775 101.915 201.961 101.603 202.092 101.248C202.232 100.884 202.302 100.497 202.302 100.086C202.302 99.666 202.232 99.2833 202.092 98.938C201.961 98.5833 201.775 98.2753 201.532 98.014C201.289 97.7433 201.005 97.538 200.678 97.398C200.361 97.2487 200.02 97.174 199.656 97.174ZM210.432 95.186C211.207 95.186 211.911 95.3073 212.546 95.55C213.19 95.7833 213.741 96.1193 214.198 96.558C214.665 96.9873 215.024 97.5007 215.276 98.098C215.528 98.6953 215.654 99.358 215.654 100.086C215.654 100.823 215.523 101.491 215.262 102.088C215.01 102.685 214.651 103.203 214.184 103.642C213.717 104.081 213.157 104.417 212.504 104.65C211.851 104.883 211.127 105 210.334 105H206.204V95.186H210.432ZM210.502 102.956C210.875 102.956 211.216 102.891 211.524 102.76C211.832 102.62 212.098 102.424 212.322 102.172C212.555 101.92 212.733 101.621 212.854 101.276C212.975 100.921 213.036 100.534 213.036 100.114C213.036 99.6847 212.971 99.2973 212.84 98.952C212.709 98.5973 212.523 98.294 212.28 98.042C212.047 97.7807 211.767 97.5847 211.44 97.454C211.123 97.314 210.768 97.244 210.376 97.244H208.766V102.956H210.502Z" fill="#0F52BA"/>
<rect x="239" y="89" width="1" height="5" fill="#0F52BA"/>
<rect x="170" y="89" width="1" height="5" fill="#0F52BA"/>
<circle cx="205" cy="53" r="35" fill="#0F52BA"/>
<circle cx="205" cy="53" r="25" fill="white" fill-opacity="0.9"/>
<path d="M196.952 38.186H199.514V48H196.952V38.186ZM205.651 38.186C206.425 38.186 207.13 38.3073 207.765 38.55C208.409 38.7833 208.959 39.1193 209.417 39.558C209.883 39.9873 210.243 40.5007 210.495 41.098C210.747 41.6953 210.873 42.358 210.873 43.086C210.873 43.8233 210.742 44.4907 210.481 45.088C210.229 45.6853 209.869 46.2033 209.403 46.642C208.936 47.0807 208.376 47.4167 207.723 47.65C207.069 47.8833 206.346 48 205.553 48H201.423V38.186H205.651ZM205.721 45.956C206.094 45.956 206.435 45.8907 206.743 45.76C207.051 45.62 207.317 45.424 207.541 45.172C207.774 44.92 207.951 44.6213 208.073 44.276C208.194 43.9213 208.255 43.534 208.255 43.114C208.255 42.6847 208.189 42.2973 208.059 41.952C207.928 41.5973 207.741 41.294 207.499 41.042C207.265 40.7807 206.985 40.5847 206.659 40.454C206.341 40.314 205.987 40.244 205.595 40.244H203.985V45.956H205.721Z" fill="#0F52BA"/>
<rect x="181" y="53" width="49" height="1" fill="#0F52BA"/>
<rect x="229" y="51" width="1" height="5" fill="#0F52BA"/>
<rect x="180" y="51" width="1" height="5" fill="#0F52BA"/>
</g>
<defs>
<clipPath id="clip0_5_119">
<rect width="250" height="115" fill="white"/>
</clipPath>
</defs>
</svg>
