<svg width="250" height="115" viewBox="0 0 250 115" fill="none" xmlns="http://www.w3.org/2000/svg">
<g clip-path="url(#clip0_4_48)">
<rect x="19.0342" y="-2.85675" width="188.64" height="2" transform="rotate(26.9216 19.0342 -2.85675)" fill="#0F52BA"/>
<rect x="170.633" y="-2.2196" width="57.1505" height="2" transform="rotate(27.3872 170.633 -2.2196)" fill="#0F52BA"/>
<path d="M101.952 45.186H104.514V52.844H108.672V55H101.952V45.186Z" fill="#0F52BA"/>
<rect x="171" y="93" width="68" height="1" fill="#0F52BA"/>
<path d="M205.18 95.186C205.955 95.186 206.659 95.3073 207.294 95.55C207.938 95.7833 208.489 96.1193 208.946 96.558C209.413 96.9873 209.772 97.5007 210.024 98.098C210.276 98.6953 210.402 99.358 210.402 100.086C210.402 100.823 210.271 101.491 210.01 102.088C209.758 102.685 209.399 103.203 208.932 103.642C208.465 104.081 207.905 104.417 207.252 104.65C206.599 104.883 205.875 105 205.082 105H200.952V95.186H205.18ZM205.25 102.956C205.623 102.956 205.964 102.891 206.272 102.76C206.58 102.62 206.846 102.424 207.07 102.172C207.303 101.92 207.481 101.621 207.602 101.276C207.723 100.921 207.784 100.534 207.784 100.114C207.784 99.6847 207.719 99.2973 207.588 98.952C207.457 98.5973 207.271 98.294 207.028 98.042C206.795 97.7807 206.515 97.5847 206.188 97.454C205.871 97.314 205.516 97.244 205.124 97.244H203.514V102.956H205.25Z" fill="#0F52BA"/>
<rect x="239" y="91" width="1" height="5" fill="#0F52BA"/>
<rect x="170" y="91" width="1" height="5" fill="#0F52BA"/>
<circle cx="205" cy="55" r="35" fill="#0F52BA"/>
</g>
<defs>
<clipPath id="clip0_4_48">
<rect width="250" height="115" fill="white"/>
</clipPath>
</defs>
</svg>
