<svg width="250" height="115" viewBox="0 0 250 115" fill="none" xmlns="http://www.w3.org/2000/svg">
<circle cx="125" cy="58" r="35" fill="#0F52BA"/>
<rect x="173" y="23" width="70" height="1" transform="rotate(90 173 23)" fill="#0F52BA"/>
<path d="M180.18 54.186C180.955 54.186 181.659 54.3073 182.294 54.55C182.938 54.7833 183.489 55.1193 183.946 55.558C184.413 55.9873 184.772 56.5007 185.024 57.098C185.276 57.6953 185.402 58.358 185.402 59.086C185.402 59.8233 185.271 60.4907 185.01 61.088C184.758 61.6853 184.399 62.2033 183.932 62.642C183.465 63.0807 182.905 63.4167 182.252 63.65C181.599 63.8833 180.875 64 180.082 64H175.952V54.186H180.18ZM180.25 61.956C180.623 61.956 180.964 61.8907 181.272 61.76C181.58 61.62 181.846 61.424 182.07 61.172C182.303 60.92 182.481 60.6213 182.602 60.276C182.723 59.9213 182.784 59.534 182.784 59.114C182.784 58.6847 182.719 58.2973 182.588 57.952C182.457 57.5973 182.271 57.294 182.028 57.042C181.795 56.7807 181.515 56.5847 181.188 56.454C180.871 56.314 180.516 56.244 180.124 56.244H178.514V61.956H180.25Z" fill="#0F52BA"/>
<rect x="175" y="92" width="1" height="5" transform="rotate(90 175 92)" fill="#0F52BA"/>
<rect x="175" y="23" width="1" height="5" transform="rotate(90 175 23)" fill="#0F52BA"/>
</svg>
