<svg width="250" height="115" viewBox="0 0 250 115" fill="none" xmlns="http://www.w3.org/2000/svg">
<g clip-path="url(#clip0_5_153)">
<rect x="-7.56958" y="-10.9952" width="201.435" height="2" transform="rotate(27.5606 -7.56958 -10.9952)" fill="#0F52BA"/>
<rect x="133.906" y="-5" width="45.4991" height="2" transform="rotate(26.9216 133.906 -5)" fill="#0F52BA"/>
<rect x="202.982" y="-5.13275" width="41.6842" height="2" transform="rotate(27.3423 202.982 -5.13275)" fill="#0F52BA"/>
<path d="M93.952 50.186H96.514V57.844H100.672V60H93.952V50.186Z" fill="#0F52BA"/>
<rect x="171" y="91" width="68" height="1" fill="#0F52BA"/>
<path d="M198.972 95.186H201.73L203.942 103.418H203.382L205.594 95.186H208.1L210.34 103.418H209.78L211.978 95.186H214.61L211.292 105H208.66L206.504 97.23L207.092 97.244L204.908 105H202.276L198.972 95.186Z" fill="#0F52BA"/>
<rect x="239" y="89" width="1" height="5" fill="#0F52BA"/>
<rect x="170" y="89" width="1" height="5" fill="#0F52BA"/>
<rect x="170" y="14" width="70" height="70" fill="#0F52BA"/>
<circle cx="206" cy="49" r="25" fill="white" fill-opacity="0.9"/>
<path d="M198.952 37.186H201.514V47H198.952V37.186ZM207.651 37.186C208.425 37.186 209.13 37.3073 209.765 37.55C210.409 37.7833 210.959 38.1193 211.417 38.558C211.883 38.9873 212.243 39.5007 212.495 40.098C212.747 40.6953 212.873 41.358 212.873 42.086C212.873 42.8233 212.742 43.4907 212.481 44.088C212.229 44.6853 211.869 45.2033 211.403 45.642C210.936 46.0807 210.376 46.4167 209.723 46.65C209.069 46.8833 208.346 47 207.553 47H203.423V37.186H207.651ZM207.721 44.956C208.094 44.956 208.435 44.8907 208.743 44.76C209.051 44.62 209.317 44.424 209.541 44.172C209.774 43.92 209.951 43.6213 210.073 43.276C210.194 42.9213 210.255 42.534 210.255 42.114C210.255 41.6847 210.189 41.2973 210.059 40.952C209.928 40.5973 209.741 40.294 209.499 40.042C209.265 39.7807 208.985 39.5847 208.659 39.454C208.341 39.314 207.987 39.244 207.595 39.244H205.985V44.956H207.721Z" fill="#0F52BA"/>
<rect x="182" y="49" width="49" height="1" fill="#0F52BA"/>
<rect x="230" y="47" width="1" height="5" fill="#0F52BA"/>
<rect x="181" y="47" width="1" height="5" fill="#0F52BA"/>
</g>
<defs>
<clipPath id="clip0_5_153">
<rect width="250" height="115" fill="white"/>
</clipPath>
</defs>
</svg>
