<svg width="250" height="115" viewBox="0 0 250 115" fill="none" xmlns="http://www.w3.org/2000/svg">
<g clip-path="url(#clip0_9_443)">
<rect x="27.6738" y="-11.3074" width="127.253" height="2" transform="rotate(36.4245 27.6738 -11.3074)" fill="#0F52BA"/>
<rect x="8.08878" y="-6.78271" width="149.592" height="2" transform="rotate(36.5881 8.08878 -6.78271)" fill="#0F52BA"/>
<rect x="99.1955" y="-20" width="75.089" height="2" transform="rotate(36.7074 99.1955 -20)" fill="#0F52BA"/>
<rect x="117.192" y="-20" width="74.0174" height="2" transform="rotate(36.5684 117.192 -20)" fill="#0F52BA"/>
<path d="M63.952 62.186H66.514V69.844H70.672V72H63.952V62.186Z" fill="#0F52BA"/>
<rect x="128" y="89" width="78" height="1" fill="#0F52BA"/>
<path d="M162.972 95.186H165.73L167.942 103.418H167.382L169.594 95.186H172.1L174.34 103.418H173.78L175.978 95.186H178.61L175.292 105H172.66L170.504 97.23L171.092 97.244L168.908 105H166.276L162.972 95.186Z" fill="#0F52BA"/>
<rect x="206" y="87" width="1" height="5" fill="#0F52BA"/>
<rect x="127" y="87" width="1" height="5" fill="#0F52BA"/>
<rect x="157" y="24" width="20" height="60" fill="#0F52BA"/>
<rect x="177" y="64" width="30" height="20" fill="#0F52BA"/>
<rect x="127" y="64" width="30" height="20" fill="#0F52BA"/>
<rect x="206" y="64" width="21" height="1" fill="#0F52BA"/>
<rect x="207" y="83" width="21" height="1" fill="#0F52BA"/>
<path d="M209.098 69.186H217.512V71.258H214.572V79H212.01V71.258H209.098V69.186ZM221.163 69.186H225.615V79H223.053V70.138L224.173 71.258H221.163V69.186Z" fill="#0F52BA"/>
<rect x="157" y="-5" width="1" height="29" fill="#0F52BA"/>
<rect x="176" y="-4" width="1" height="29" fill="#0F52BA"/>
<path d="M159.098 3.186H167.512V5.258H164.572V13H162.01V5.258H159.098V3.186ZM171.688 7.652C171.968 7.36267 172.196 7.07333 172.374 6.784C172.551 6.48533 172.64 6.22867 172.64 6.014C172.64 5.74333 172.542 5.53333 172.346 5.384C172.15 5.23467 171.874 5.16 171.52 5.16C171.118 5.16 170.68 5.272 170.204 5.496C169.728 5.72 169.266 6.01867 168.818 6.392L167.838 4.544C168.472 4.08667 169.13 3.732 169.812 3.48C170.493 3.21867 171.193 3.088 171.912 3.088C172.574 3.088 173.162 3.19533 173.676 3.41C174.189 3.61533 174.59 3.90933 174.88 4.292C175.178 4.67467 175.328 5.12733 175.328 5.65C175.328 6.182 175.146 6.72333 174.782 7.274C174.427 7.81533 173.974 8.36133 173.424 8.912L170.624 11.754L170.288 10.97H175.608V13H168.132L168.118 11.334L171.688 7.652Z" fill="#0F52BA"/>
<rect x="238" y="24" width="59" height="1" transform="rotate(90 238 24)" fill="#0F52BA"/>
<path d="M224.952 44.186H227.514V48.204H231.476V44.186H234.038V54H231.476V50.22H227.514V54H224.952V44.186Z" fill="#0F52BA"/>
<rect x="240" y="83" width="1" height="5" transform="rotate(90 240 83)" fill="#0F52BA"/>
<rect x="240" y="24" width="1" height="5" transform="rotate(90 240 24)" fill="#0F52BA"/>
</g>
<defs>
<clipPath id="clip0_9_443">
<rect width="250" height="115" fill="white"/>
</clipPath>
</defs>
</svg>
