<svg width="250" height="115" viewBox="0 0 250 115" fill="none" xmlns="http://www.w3.org/2000/svg">
<g clip-path="url(#clip0_9_252)">
<rect x="7.07529" y="-4.71143" width="167.42" height="2.01669" transform="rotate(31.262 7.07529 -4.71143)" fill="#0F52BA"/>
<rect x="66.0005" y="-23.6975" width="118.259" height="2" transform="rotate(30.7401 66.0005 -23.6975)" fill="#0F52BA"/>
<rect x="115.757" y="-18.644" width="98.5576" height="2" transform="rotate(33.4504 115.757 -18.644)" fill="#0F52BA"/>
<path d="M78.952 50.186H81.514V57.844H85.672V60H78.952V50.186Z" fill="#0F52BA"/>
<rect x="150" y="90" width="64" height="1" fill="#0F52BA"/>
<rect x="228" y="36" width="47" height="1" transform="rotate(90 228 36)" fill="#0F52BA"/>
<path d="M168.972 95.186H171.73L173.942 103.418H173.382L175.594 95.186H178.1L180.34 103.418H179.78L181.978 95.186H184.61L181.292 105H178.66L176.504 97.23L177.092 97.244L174.908 105H172.276L168.972 95.186ZM188.149 95.186H192.601V105H190.039V96.138L191.159 97.258H188.149V95.186Z" fill="#0F52BA"/>
<path d="M167.972 5.186H170.73L172.942 13.418H172.382L174.594 5.186H177.1L179.34 13.418H178.78L180.978 5.186H183.61L180.292 15H177.66L175.504 7.23L176.092 7.244L173.908 15H171.276L167.972 5.186ZM191.447 9.652C191.727 9.36267 191.956 9.07333 192.133 8.784C192.311 8.48533 192.399 8.22867 192.399 8.014C192.399 7.74333 192.301 7.53333 192.105 7.384C191.909 7.23467 191.634 7.16 191.279 7.16C190.878 7.16 190.439 7.272 189.963 7.496C189.487 7.72 189.025 8.01867 188.577 8.392L187.597 6.544C188.232 6.08667 188.89 5.732 189.571 5.48C190.253 5.21867 190.953 5.088 191.671 5.088C192.334 5.088 192.922 5.19533 193.435 5.41C193.949 5.61533 194.35 5.90933 194.639 6.292C194.938 6.67467 195.087 7.12733 195.087 7.65C195.087 8.182 194.905 8.72333 194.541 9.274C194.187 9.81533 193.734 10.3613 193.183 10.912L190.383 13.754L190.047 12.97H195.367V15H187.891L187.877 13.334L191.447 9.652Z" fill="#0F52BA"/>
<path d="M230.952 54.186H233.514V58.204H237.476V54.186H240.038V64H237.476V60.22H233.514V64H230.952V54.186Z" fill="#0F52BA"/>
<rect x="213" y="88" width="1" height="5" fill="#0F52BA"/>
<rect x="197" y="5" width="1" height="31" fill="#0F52BA"/>
<rect x="230" y="83" width="1" height="5" transform="rotate(90 230 83)" fill="#0F52BA"/>
<rect x="149" y="88" width="1" height="5" fill="#0F52BA"/>
<rect x="166" y="4" width="1" height="32" fill="#0F52BA"/>
<rect x="230" y="36" width="1" height="5" transform="rotate(90 230 36)" fill="#0F52BA"/>
<path d="M166 36H198.023L214 84H149L166 36Z" fill="#0F52BA"/>
</g>
<defs>
<clipPath id="clip0_9_252">
<rect width="250" height="115" fill="white"/>
</clipPath>
</defs>
</svg>
