<svg width="250" height="115" viewBox="0 0 250 115" fill="none" xmlns="http://www.w3.org/2000/svg">
<g clip-path="url(#clip0_8_213)">
<rect x="3.03235" y="-10.3132" width="171.277" height="2.25917" transform="rotate(32.644 3.03235 -10.3132)" fill="#0F52BA"/>
<rect x="140.017" y="-5.75806" width="45.5308" height="2" transform="rotate(25.7559 140.017 -5.75806)" fill="#0F52BA"/>
<path d="M75.952 50.186H78.514V57.844H82.672V60H75.952V50.186Z" fill="#0F52BA"/>
<rect x="147" y="90" width="70" height="1" fill="#0F52BA"/>
<rect x="224" y="14" width="70" height="1" transform="rotate(90 224 14)" fill="#0F52BA"/>
<path d="M173.972 95.186H176.73L178.942 103.418H178.382L180.594 95.186H183.1L185.34 103.418H184.78L186.978 95.186H189.61L186.292 105H183.66L181.504 97.23L182.092 97.244L179.908 105H177.276L173.972 95.186Z" fill="#0F52BA"/>
<path d="M230.952 45.186H233.514V49.204H237.476V45.186H240.038V55H237.476V51.22H233.514V55H230.952V45.186Z" fill="#0F52BA"/>
<rect x="216" y="88" width="1" height="5" fill="#0F52BA"/>
<rect x="226" y="83" width="1" height="5" transform="rotate(90 226 83)" fill="#0F52BA"/>
<rect x="146" y="88" width="1" height="5" fill="#0F52BA"/>
<path d="M216 84H146L181 14L216 84Z" fill="#0F52BA"/>
<rect x="226" y="13" width="1" height="5" transform="rotate(90 226 13)" fill="#0F52BA"/>
</g>
<defs>
<clipPath id="clip0_8_213">
<rect width="250" height="115" fill="white"/>
</clipPath>
</defs>
</svg>
