<svg width="50" height="50" viewBox="0 0 50 50" fill="none" xmlns="http://www.w3.org/2000/svg">
<path d="M25 6C20.2663 6 16.4286 9.86679 16.4286 14.6364C16.4286 16.6008 17.0999 18.367 18.1963 19.8182H11.2857L1 44H49L38.7143 19.8182H31.8037C32.9002 18.367 33.5714 16.6008 33.5714 14.6364C33.5714 9.86679 29.7337 6 25 6ZM25 9.45455C27.8405 9.45455 30.1429 11.7744 30.1429 14.6364C30.1429 17.4982 27.8405 19.8182 25 19.8182C22.1595 19.8182 19.8571 17.4982 19.8571 14.6364C19.8571 11.7744 22.1595 9.45455 25 9.45455Z" fill="#0F52BA"/>
<path d="M30.7356 37.04C30.7356 38.0533 30.489 38.9333 29.9956 39.68C29.5023 40.4267 28.8156 41 27.9356 41.4C27.0556 41.8133 26.029 42.02 24.8556 42.02C23.909 42.02 23.0156 41.8867 22.1756 41.62C21.349 41.3533 20.629 41.0133 20.0156 40.6L21.2556 38.2C21.749 38.5333 22.2823 38.7933 22.8556 38.98C23.429 39.1667 24.009 39.26 24.5956 39.26C25.1423 39.26 25.609 39.1733 25.9956 39C26.3823 38.8267 26.6756 38.58 26.8756 38.26C27.089 37.94 27.1956 37.56 27.1956 37.12V27.2H30.7356V37.04ZM24.0356 27.08C24.929 27.0667 25.689 27.2733 26.3156 27.7C26.9556 28.1133 27.4356 28.7067 27.7556 29.48C28.089 30.24 28.2556 31.1467 28.2556 32.2C28.2556 33.2667 28.0956 34.1933 27.7756 34.98C27.4556 35.7533 26.9823 36.3533 26.3556 36.78C25.7423 37.1933 24.9956 37.4 24.1156 37.4C23.2223 37.4 22.4223 37.1867 21.7156 36.76C21.0223 36.32 20.4756 35.7133 20.0756 34.94C19.689 34.1533 19.4956 33.2333 19.4956 32.18C19.4956 31.1533 19.6823 30.26 20.0556 29.5C20.4423 28.74 20.9756 28.1467 21.6556 27.72C22.349 27.2933 23.1423 27.08 24.0356 27.08ZM25.0156 29.72C24.5756 29.72 24.189 29.8267 23.8556 30.04C23.5356 30.2533 23.2823 30.5533 23.0956 30.94C22.909 31.3267 22.8156 31.7733 22.8156 32.28C22.8156 32.7867 22.909 33.2333 23.0956 33.62C23.2823 34.0067 23.5356 34.3067 23.8556 34.52C24.189 34.7333 24.5756 34.84 25.0156 34.84C25.4423 34.84 25.8156 34.7333 26.1356 34.52C26.469 34.3067 26.729 34.0067 26.9156 33.62C27.1023 33.2333 27.1956 32.7867 27.1956 32.28C27.1956 31.7733 27.1023 31.3267 26.9156 30.94C26.729 30.5533 26.469 30.2533 26.1356 30.04C25.8156 29.8267 25.4423 29.72 25.0156 29.72Z" fill="white"/>
</svg>
