<svg width="50" height="50" viewBox="0 0 50 50" fill="none" xmlns="http://www.w3.org/2000/svg">
<path d="M25 6C20.2663 6 16.4286 9.86679 16.4286 14.6364C16.4286 16.6008 17.0999 18.367 18.1963 19.8182H11.2857L1 44H49L38.7143 19.8182H31.8037C32.9002 18.367 33.5714 16.6008 33.5714 14.6364C33.5714 9.86679 29.7337 6 25 6ZM25 9.45455C27.8405 9.45455 30.1429 11.7744 30.1429 14.6364C30.1429 17.4982 27.8405 19.8182 25 19.8182C22.1595 19.8182 19.8571 17.4982 19.8571 14.6364C19.8571 11.7744 22.1595 9.45455 25 9.45455Z" fill="#0F52BA"/>
<path d="M13.5307 23.16H17.0907V38H13.5307V23.16ZM20.5507 27.2H24.5907L16.8907 35.28V31.12L20.5507 27.2ZM20.3707 30.96L24.6707 38H20.4707L17.7507 33.1L20.3707 30.96ZM36.6805 37.04C36.6805 38.0533 36.4339 38.9333 35.9405 39.68C35.4472 40.4267 34.7605 41 33.8805 41.4C33.0005 41.8133 31.9739 42.02 30.8005 42.02C29.8539 42.02 28.9605 41.8867 28.1205 41.62C27.2939 41.3533 26.5739 41.0133 25.9605 40.6L27.2005 38.2C27.6939 38.5333 28.2272 38.7933 28.8005 38.98C29.3739 39.1667 29.9539 39.26 30.5405 39.26C31.0872 39.26 31.5539 39.1733 31.9405 39C32.3272 38.8267 32.6205 38.58 32.8205 38.26C33.0339 37.94 33.1405 37.56 33.1405 37.12V27.2H36.6805V37.04ZM29.9805 27.08C30.8739 27.0667 31.6339 27.2733 32.2605 27.7C32.9005 28.1133 33.3805 28.7067 33.7005 29.48C34.0339 30.24 34.2005 31.1467 34.2005 32.2C34.2005 33.2667 34.0405 34.1933 33.7205 34.98C33.4005 35.7533 32.9272 36.3533 32.3005 36.78C31.6872 37.1933 30.9405 37.4 30.0605 37.4C29.1672 37.4 28.3672 37.1867 27.6605 36.76C26.9672 36.32 26.4205 35.7133 26.0205 34.94C25.6339 34.1533 25.4405 33.2333 25.4405 32.18C25.4405 31.1533 25.6272 30.26 26.0005 29.5C26.3872 28.74 26.9205 28.1467 27.6005 27.72C28.2939 27.2933 29.0872 27.08 29.9805 27.08ZM30.9605 29.72C30.5205 29.72 30.1339 29.8267 29.8005 30.04C29.4805 30.2533 29.2272 30.5533 29.0405 30.94C28.8539 31.3267 28.7605 31.7733 28.7605 32.28C28.7605 32.7867 28.8539 33.2333 29.0405 33.62C29.2272 34.0067 29.4805 34.3067 29.8005 34.52C30.1339 34.7333 30.5205 34.84 30.9605 34.84C31.3872 34.84 31.7605 34.7333 32.0805 34.52C32.4139 34.3067 32.6739 34.0067 32.8605 33.62C33.0472 33.2333 33.1405 32.7867 33.1405 32.28C33.1405 31.7733 33.0472 31.3267 32.8605 30.94C32.6739 30.5533 32.4139 30.2533 32.0805 30.04C31.7605 29.8267 31.3872 29.72 30.9605 29.72Z" fill="white"/>
</svg>
