<svg width="50" height="50" viewBox="0 0 50 50" fill="none" xmlns="http://www.w3.org/2000/svg">
<path d="M25 6C20.2663 6 16.4286 9.86679 16.4286 14.6364C16.4286 16.6008 17.0999 18.367 18.1963 19.8182H11.2857L1 44H49L38.7143 19.8182H31.8037C32.9002 18.367 33.5714 16.6008 33.5714 14.6364C33.5714 9.86679 29.7337 6 25 6ZM25 9.45455C27.8405 9.45455 30.1429 11.7744 30.1429 14.6364C30.1429 17.4982 27.8405 19.8182 25 19.8182C22.1595 19.8182 19.8571 17.4982 19.8571 14.6364C19.8571 11.7744 22.1595 9.45455 25 9.45455Z" fill="#0F52BA"/>
<path d="M19.5757 26.08C20.7624 26.08 21.7957 26.3067 22.6757 26.76C23.569 27.2133 24.2624 27.8533 24.7557 28.68C25.249 29.5067 25.4957 30.4733 25.4957 31.58C25.4957 32.6867 25.249 33.66 24.7557 34.5C24.2624 35.3267 23.569 35.9733 22.6757 36.44C21.7957 36.8933 20.7624 37.12 19.5757 37.12C18.389 37.12 17.349 36.8933 16.4557 36.44C15.5757 35.9733 14.889 35.3267 14.3957 34.5C13.9157 33.66 13.6757 32.6867 13.6757 31.58C13.6757 30.4733 13.9157 29.5067 14.3957 28.68C14.889 27.8533 15.5757 27.2133 16.4557 26.76C17.349 26.3067 18.389 26.08 19.5757 26.08ZM19.5757 28.9C19.109 28.9 18.7024 29.0133 18.3557 29.24C18.009 29.4667 17.7357 29.7867 17.5357 30.2C17.349 30.6133 17.2557 31.0933 17.2557 31.64C17.2557 32.1867 17.349 32.6667 17.5357 33.08C17.7357 33.48 18.009 33.7933 18.3557 34.02C18.7024 34.2467 19.109 34.36 19.5757 34.36C20.0424 34.36 20.449 34.2467 20.7957 34.02C21.1557 33.7933 21.429 33.48 21.6157 33.08C21.8157 32.6667 21.9157 32.1867 21.9157 31.64C21.9157 31.0933 21.8157 30.6133 21.6157 30.2C21.429 29.7867 21.1557 29.4667 20.7957 29.24C20.449 29.0133 20.0424 28.9 19.5757 28.9ZM27.5705 26.2H37.0505V28.34L31.8505 34.32H37.2505V37H27.3905V34.86L32.5905 28.88H27.5705V26.2Z" fill="white"/>
</svg>
