<svg width="50" height="50" viewBox="0 0 50 50" fill="none" xmlns="http://www.w3.org/2000/svg">
<path d="M25 6C20.2663 6 16.4286 9.86679 16.4286 14.6364C16.4286 16.6008 17.0999 18.367 18.1963 19.8182H11.2857L1 44H49L38.7143 19.8182H31.8037C32.9002 18.367 33.5714 16.6008 33.5714 14.6364C33.5714 9.86679 29.7337 6 25 6ZM25 9.45455C27.8405 9.45455 30.1429 11.7744 30.1429 14.6364C30.1429 17.4982 27.8405 19.8182 25 19.8182C22.1595 19.8182 19.8571 17.4982 19.8571 14.6364C19.8571 11.7744 22.1595 9.45455 25 9.45455Z" fill="#0F52BA"/>
<path d="M16.4623 22.16H20.0223V37H16.4623V22.16ZM30.4867 26.08C31.5001 26.08 32.3801 26.3133 33.1267 26.78C33.8867 27.2333 34.4734 27.88 34.8867 28.72C35.3134 29.5467 35.5267 30.5267 35.5267 31.66C35.5267 32.74 35.3201 33.6933 34.9067 34.52C34.5067 35.3467 33.9334 35.9867 33.1867 36.44C32.4534 36.8933 31.5801 37.12 30.5667 37.12C29.6601 37.12 28.8734 36.9 28.2067 36.46C27.5534 36.0067 27.0467 35.3733 26.6867 34.56C26.3401 33.7333 26.1667 32.76 26.1667 31.64C26.1667 30.4933 26.3401 29.5067 26.6867 28.68C27.0334 27.84 27.5267 27.2 28.1667 26.76C28.8201 26.3067 29.5934 26.08 30.4867 26.08ZM29.6067 28.82C29.1667 28.82 28.7667 28.94 28.4067 29.18C28.0601 29.4067 27.7867 29.7267 27.5867 30.14C27.4001 30.54 27.3067 31.0133 27.3067 31.56C27.3067 32.0933 27.4001 32.5733 27.5867 33C27.7867 33.4133 28.0601 33.7333 28.4067 33.96C28.7667 34.1867 29.1667 34.3 29.6067 34.3C30.0734 34.3 30.4801 34.1867 30.8267 33.96C31.1867 33.72 31.4601 33.3933 31.6467 32.98C31.8467 32.5667 31.9467 32.0933 31.9467 31.56C31.9467 31.0267 31.8467 30.5533 31.6467 30.14C31.4601 29.7267 31.1867 29.4067 30.8267 29.18C30.4801 28.94 30.0734 28.82 29.6067 28.82ZM23.7467 22.16H27.3067V37H23.7467V22.16Z" fill="white"/>
</svg>
