<svg width="50" height="50" viewBox="0 0 50 50" fill="none" xmlns="http://www.w3.org/2000/svg">
<path d="M32.7675 5C33.0984 5.00007 33.4157 5.13133 33.65 5.365L44.635 16.35C44.8687 16.5843 44.9999 16.9016 45 17.2325V32.7675C44.9999 33.0984 44.8687 33.4157 44.635 33.65L33.65 44.635C33.4157 44.8687 33.0984 44.9999 32.7675 45H17.2325C16.9016 44.9999 16.5843 44.8687 16.35 44.635L5.365 33.65C5.13133 33.4157 5.00007 33.0984 5 32.7675V17.2325C5.00007 16.9016 5.13133 16.5843 5.365 16.35L16.35 5.365C16.5843 5.13133 16.9016 5.00007 17.2325 5H32.7675Z" fill="#0F52BA"/>
</svg>
