<svg width="50" height="50" viewBox="0 0 50 50" fill="none" xmlns="http://www.w3.org/2000/svg">
<path d="M15.3444 18.696C15.0564 18.264 14.6964 17.936 14.2644 17.712C13.8484 17.472 13.3604 17.352 12.8004 17.352C12.2884 17.352 11.8324 17.488 11.4324 17.76C11.0484 18.016 10.7444 18.384 10.5204 18.864C10.3124 19.344 10.2084 19.904 10.2084 20.544C10.2084 21.184 10.3124 21.744 10.5204 22.224C10.7444 22.704 11.0484 23.08 11.4324 23.352C11.8324 23.624 12.2884 23.76 12.8004 23.76C13.3764 23.76 13.8724 23.64 14.2884 23.4C14.7204 23.16 15.0724 22.784 15.3444 22.272L18.4884 24.072C17.9764 25.048 17.2084 25.808 16.1844 26.352C15.1604 26.88 13.9604 27.144 12.5844 27.144C11.2564 27.144 10.0884 26.872 9.08041 26.328C8.07241 25.784 7.28841 25.016 6.72841 24.024C6.18441 23.032 5.91241 21.88 5.91241 20.568C5.91241 19.224 6.19241 18.056 6.75241 17.064C7.31241 16.056 8.09641 15.28 9.10441 14.736C10.1124 14.176 11.2884 13.896 12.6324 13.896C13.9284 13.896 15.0804 14.16 16.0884 14.688C17.0964 15.2 17.8804 15.936 18.4404 16.896L15.3444 18.696ZM30.261 20.016C30.261 19.264 30.069 18.68 29.685 18.264C29.301 17.832 28.781 17.616 28.125 17.616C27.373 17.632 26.773 17.92 26.325 18.48C25.877 19.024 25.653 19.728 25.653 20.592H24.645C24.645 19.12 24.853 17.888 25.269 16.896C25.701 15.888 26.309 15.128 27.093 14.616C27.877 14.104 28.805 13.848 29.877 13.848C30.821 13.848 31.637 14.056 32.325 14.472C33.029 14.872 33.573 15.448 33.957 16.2C34.341 16.936 34.533 17.808 34.533 18.816V27H30.261V20.016ZM39.117 20.016C39.117 19.264 38.925 18.68 38.541 18.264C38.157 17.832 37.637 17.616 36.981 17.616C36.229 17.632 35.629 17.92 35.181 18.48C34.749 19.024 34.533 19.728 34.533 20.592H33.501C33.501 19.12 33.709 17.888 34.125 16.896C34.557 15.888 35.165 15.128 35.949 14.616C36.733 14.104 37.661 13.848 38.733 13.848C39.677 13.848 40.493 14.056 41.181 14.472C41.885 14.872 42.429 15.448 42.813 16.2C43.197 16.936 43.389 17.808 43.389 18.816V27H39.117V20.016ZM21.405 14.04H25.653V27H21.405V14.04Z" fill="#0F52BA"/>
<path d="M1 37H49V42H1V37Z" fill="#0F52BA"/>
<path d="M1 32H4.13043V37H1V32Z" fill="#0F52BA"/>
<path d="M45.8696 32H49V37H45.8696V32Z" fill="#0F52BA"/>
</svg>
