<svg width="50" height="50" viewBox="0 0 50 50" fill="none" xmlns="http://www.w3.org/2000/svg">
<path d="M16.7481 13.44C16.7481 12.48 16.9641 11.672 17.3961 11.016C17.8441 10.36 18.4441 9.864 19.1961 9.528C19.9481 9.176 20.7961 9 21.7401 9C22.2041 9 22.6681 9.048 23.1321 9.144C23.6121 9.224 24.0521 9.344 24.4521 9.504L23.9001 12.696C23.6601 12.6 23.4121 12.52 23.1561 12.456C22.9161 12.392 22.6841 12.36 22.4601 12.36C22.1721 12.36 21.9161 12.408 21.6921 12.504C21.4841 12.6 21.3161 12.76 21.1881 12.984C21.0601 13.192 20.9961 13.448 20.9961 13.752V27H16.7481V13.44ZM14.9961 14.64H23.8761V17.424H14.9961V14.64ZM31.6553 22.392C31.6553 22.888 31.7593 23.248 31.9673 23.472C32.1753 23.696 32.4633 23.8 32.8313 23.784C33.0553 23.784 33.3033 23.744 33.5753 23.664C33.8473 23.584 34.1353 23.48 34.4393 23.352L35.2553 26.304C34.7913 26.592 34.2473 26.816 33.6233 26.976C33.0153 27.12 32.3913 27.192 31.7513 27.192C30.9193 27.192 30.1753 27.04 29.5193 26.736C28.8633 26.416 28.3433 25.952 27.9593 25.344C27.5913 24.72 27.4073 23.96 27.4073 23.064V11.064H31.6553V22.392ZM25.6073 14.64H35.0153V17.424H25.6073V14.64Z" fill="#0F52BA"/>
<path d="M1 37H49V42H1V37Z" fill="#0F52BA"/>
<path d="M1 32H4.13043V37H1V32Z" fill="#0F52BA"/>
<path d="M45.8696 32H49V37H45.8696V32Z" fill="#0F52BA"/>
</svg>
