<svg width="50" height="50" viewBox="0 0 50 50" fill="none" xmlns="http://www.w3.org/2000/svg">
<path d="M14.8043 14.04H19.0523V27H14.8043V14.04ZM16.9403 8.088C17.5963 8.088 18.1323 8.304 18.5483 8.736C18.9803 9.152 19.1963 9.688 19.1963 10.344C19.1963 10.984 18.9803 11.52 18.5483 11.952C18.1323 12.368 17.5963 12.576 16.9403 12.576C16.2843 12.576 15.7403 12.368 15.3083 11.952C14.8923 11.52 14.6843 10.984 14.6843 10.344C14.6843 9.688 14.8923 9.152 15.3083 8.736C15.7403 8.304 16.2843 8.088 16.9403 8.088ZM32.3118 20.016C32.3118 19.28 32.1118 18.696 31.7118 18.264C31.3118 17.832 30.7758 17.616 30.1038 17.616C29.3038 17.632 28.6718 17.92 28.2078 18.48C27.7598 19.024 27.5358 19.728 27.5358 20.592H26.5278C26.5278 19.12 26.7438 17.888 27.1758 16.896C27.6078 15.888 28.2158 15.128 28.9998 14.616C29.7998 14.104 30.7518 13.848 31.8558 13.848C32.7998 13.848 33.6238 14.056 34.3278 14.472C35.0478 14.872 35.5998 15.448 35.9838 16.2C36.3678 16.936 36.5598 17.808 36.5598 18.816V27H32.3118V20.016ZM23.2878 14.04H27.5598V27H23.2878V14.04Z" fill="#0F52BA"/>
<path d="M1 37H49V42H1V37Z" fill="#0F52BA"/>
<path d="M1 32H4.13043V37H1V32Z" fill="#0F52BA"/>
<path d="M45.8696 32H49V37H45.8696V32Z" fill="#0F52BA"/>
</svg>
