<svg width="50" height="50" viewBox="0 0 50 50" fill="none" xmlns="http://www.w3.org/2000/svg">
<path d="M23.5427 20.016C23.5427 19.264 23.3507 18.68 22.9667 18.264C22.5827 17.832 22.0627 17.616 21.4067 17.616C20.6547 17.632 20.0547 17.92 19.6067 18.48C19.1587 19.024 18.9347 19.728 18.9347 20.592H17.9267C17.9267 19.12 18.1347 17.888 18.5507 16.896C18.9827 15.888 19.5907 15.128 20.3747 14.616C21.1587 14.104 22.0867 13.848 23.1587 13.848C24.1027 13.848 24.9187 14.056 25.6067 14.472C26.3107 14.872 26.8547 15.448 27.2387 16.2C27.6227 16.936 27.8147 17.808 27.8147 18.816V27H23.5427V20.016ZM32.3987 20.016C32.3987 19.264 32.2067 18.68 31.8227 18.264C31.4387 17.832 30.9187 17.616 30.2627 17.616C29.5107 17.632 28.9107 17.92 28.4627 18.48C28.0307 19.024 27.8147 19.728 27.8147 20.592H26.7827C26.7827 19.12 26.9907 17.888 27.4067 16.896C27.8387 15.888 28.4467 15.128 29.2307 14.616C30.0147 14.104 30.9427 13.848 32.0147 13.848C32.9587 13.848 33.7747 14.056 34.4627 14.472C35.1667 14.872 35.7107 15.448 36.0947 16.2C36.4787 16.936 36.6707 17.808 36.6707 18.816V27H32.3987V20.016ZM14.6867 14.04H18.9347V27H14.6867V14.04Z" fill="#0F52BA"/>
<path d="M1 37H49V42H1V37Z" fill="#0F52BA"/>
<path d="M1 32H4.13043V37H1V32Z" fill="#0F52BA"/>
<path d="M45.8696 32H49V37H45.8696V32Z" fill="#0F52BA"/>
</svg>
