<svg width="50" height="50" viewBox="0 0 50 50" fill="none" xmlns="http://www.w3.org/2000/svg">
<g clip-path="url(#clip0_49_16)">
<path d="M9.61738 20.016C9.61738 19.264 9.42538 18.68 9.04138 18.264C8.65738 17.832 8.13738 17.616 7.48138 17.616C6.72938 17.632 6.12938 17.92 5.68138 18.48C5.23338 19.024 5.00938 19.728 5.00938 20.592H4.00138C4.00138 19.12 4.20938 17.888 4.62538 16.896C5.05738 15.888 5.66538 15.128 6.44938 14.616C7.23338 14.104 8.16138 13.848 9.23338 13.848C10.1774 13.848 10.9934 14.056 11.6814 14.472C12.3854 14.872 12.9294 15.448 13.3134 16.2C13.6974 16.936 13.8894 17.808 13.8894 18.816V27H9.61738V20.016ZM18.4734 20.016C18.4734 19.264 18.2814 18.68 17.8974 18.264C17.5134 17.832 16.9934 17.616 16.3374 17.616C15.5854 17.632 14.9854 17.92 14.5374 18.48C14.1054 19.024 13.8894 19.728 13.8894 20.592H12.8574C12.8574 19.12 13.0654 17.888 13.4814 16.896C13.9134 15.888 14.5214 15.128 15.3054 14.616C16.0894 14.104 17.0174 13.848 18.0894 13.848C19.0334 13.848 19.8494 14.056 20.5374 14.472C21.2414 14.872 21.7854 15.448 22.1694 16.2C22.5534 16.936 22.7454 17.808 22.7454 18.816V27H18.4734V20.016ZM0.761376 14.04H5.00938V27H0.761376V14.04ZM35.468 20.016C35.468 19.264 35.276 18.68 34.892 18.264C34.508 17.832 33.988 17.616 33.332 17.616C32.58 17.632 31.98 17.92 31.532 18.48C31.084 19.024 30.86 19.728 30.86 20.592H29.852C29.852 19.12 30.06 17.888 30.476 16.896C30.908 15.888 31.516 15.128 32.3 14.616C33.084 14.104 34.012 13.848 35.084 13.848C36.028 13.848 36.844 14.056 37.532 14.472C38.236 14.872 38.78 15.448 39.164 16.2C39.548 16.936 39.74 17.808 39.74 18.816V27H35.468V20.016ZM44.324 20.016C44.324 19.264 44.132 18.68 43.748 18.264C43.364 17.832 42.844 17.616 42.188 17.616C41.436 17.632 40.836 17.92 40.388 18.48C39.956 19.024 39.74 19.728 39.74 20.592H38.708C38.708 19.12 38.916 17.888 39.332 16.896C39.764 15.888 40.372 15.128 41.156 14.616C41.94 14.104 42.868 13.848 43.94 13.848C44.884 13.848 45.7 14.056 46.388 14.472C47.092 14.872 47.636 15.448 48.02 16.2C48.404 16.936 48.596 17.808 48.596 18.816V27H44.324V20.016ZM26.612 14.04H30.86V27H26.612V14.04Z" fill="#0F52BA"/>
<path d="M1 37H49V42H1V37Z" fill="#0F52BA"/>
<path d="M1 32H4.13043V37H1V32Z" fill="#0F52BA"/>
<path d="M45.8696 32H49V37H45.8696V32Z" fill="#0F52BA"/>
</g>
<defs>
<clipPath id="clip0_49_16">
<rect width="50" height="50" fill="white"/>
</clipPath>
</defs>
</svg>
