<svg width="50" height="50" viewBox="0 0 50 50" fill="none" xmlns="http://www.w3.org/2000/svg">
<path d="M18.1131 28.296C17.6331 29.496 16.9691 30.384 16.1211 30.96C15.2731 31.552 14.2411 31.848 13.0251 31.848C12.2891 31.848 11.6091 31.736 10.9851 31.512C10.3771 31.304 9.77713 30.968 9.18513 30.504L10.9611 27.6C11.5371 28.08 12.1131 28.32 12.6891 28.32C13.0411 28.32 13.3451 28.232 13.6011 28.056C13.8731 27.896 14.0891 27.648 14.2491 27.312L14.5611 26.688L9.18513 14.04H13.5771L16.6731 22.536L19.4331 14.04H23.6811L18.1131 28.296ZM30.5783 13.872C31.6823 13.872 32.6263 14.144 33.4103 14.688C34.1943 15.216 34.8023 15.976 35.2343 16.968C35.6663 17.96 35.8823 19.128 35.8823 20.472C35.8823 21.832 35.6743 23.016 35.2583 24.024C34.8423 25.032 34.2423 25.808 33.4583 26.352C32.6903 26.896 31.7623 27.168 30.6743 27.168C29.4583 27.168 28.3943 26.888 27.4823 26.328C26.5703 25.768 25.8663 24.984 25.3703 23.976C24.8743 22.968 24.6263 21.792 24.6263 20.448C24.6263 19.12 24.8663 17.968 25.3463 16.992C25.8423 16.016 26.5383 15.256 27.4343 14.712C28.3463 14.152 29.3943 13.872 30.5783 13.872ZM31.7303 17.28C31.1703 17.28 30.6743 17.416 30.2423 17.688C29.8263 17.96 29.4983 18.344 29.2583 18.84C29.0343 19.336 28.9223 19.912 28.9223 20.568C28.9223 21.224 29.0343 21.8 29.2583 22.296C29.4983 22.776 29.8263 23.16 30.2423 23.448C30.6743 23.72 31.1703 23.856 31.7303 23.856C32.2903 23.856 32.7783 23.72 33.1943 23.448C33.6103 23.16 33.9303 22.776 34.1543 22.296C34.3943 21.8 34.5143 21.224 34.5143 20.568C34.5143 19.912 34.3943 19.336 34.1543 18.84C33.9303 18.344 33.6103 17.96 33.1943 17.688C32.7783 17.416 32.2903 17.28 31.7303 17.28ZM34.5143 9.192H38.7863V27H34.5143V9.192Z" fill="#0F52BA"/>
<path d="M1 37H49V42H1V37Z" fill="#0F52BA"/>
<path d="M1 32H4.13043V37H1V32Z" fill="#0F52BA"/>
<path d="M45.8696 32H49V37H45.8696V32Z" fill="#0F52BA"/>
</svg>
