<svg width="270" height="115" viewBox="0 0 270 115" fill="none" xmlns="http://www.w3.org/2000/svg">
<g clip-path="url(#clip0_9_408)">
<rect width="270" height="115" fill="white"/>
<rect x="-11.9802" y="-6.21899" width="200.922" height="2" transform="rotate(27.0623 -11.9802 -6.21899)" fill="black"/>
<rect x="120.068" y="-2.83398" width="54.6788" height="2" transform="rotate(23.2497 120.068 -2.83398)" fill="black"/>
<path d="M89.952 53.186H92.514V60.844H96.672V63H89.952V53.186Z" fill="black"/>
<rect x="167" y="93" width="59" height="1" fill="black"/>
<path d="M189.972 98.186H192.73L194.942 106.418H194.382L196.594 98.186H199.1L201.34 106.418H200.78L202.978 98.186H205.61L202.292 108H199.66L197.504 100.23L198.092 100.244L195.908 108H193.276L189.972 98.186Z" fill="black"/>
<rect x="225" y="91" width="1" height="5" fill="black"/>
<rect x="166" y="91" width="1" height="5" fill="black"/>
<rect x="166" y="17" width="15" height="70" fill="black"/>
<rect x="181" y="72" width="45" height="15" fill="black"/>
<rect x="181" y="17" width="45" height="15" fill="black"/>
<rect x="249" y="18" width="68" height="1" transform="rotate(90 249 18)" fill="black"/>
<path d="M251.952 47.186H254.514V51.204H258.476V47.186H261.038V57H258.476V53.22H254.514V57H251.952V47.186Z" fill="black"/>
<rect x="251" y="86" width="1" height="5" transform="rotate(90 251 86)" fill="black"/>
<rect x="251" y="17" width="1" height="5" transform="rotate(90 251 17)" fill="black"/>
<rect x="183.938" y="-2.44531" width="46.3449" height="2" transform="rotate(24.8287 183.938 -2.44531)" fill="black"/>
<rect x="211" y="32" width="15" height="10" fill="black"/>
<rect x="211" y="62" width="15" height="10" fill="black"/>
<path d="M224.316 50.266C223.971 49.9207 223.565 49.6547 223.098 49.468C222.641 49.272 222.183 49.174 221.726 49.174C221.325 49.174 220.956 49.2487 220.62 49.398C220.284 49.5473 219.99 49.7527 219.738 50.014C219.486 50.2753 219.29 50.5833 219.15 50.938C219.019 51.2927 218.954 51.6753 218.954 52.086C218.954 52.506 219.024 52.8933 219.164 53.248C219.304 53.6027 219.5 53.9153 219.752 54.186C220.004 54.4473 220.298 54.6527 220.634 54.802C220.979 54.9513 221.353 55.026 221.754 55.026C222.109 55.026 222.51 54.942 222.958 54.774C223.415 54.5967 223.831 54.368 224.204 54.088L225.66 55.894C225.315 56.1367 224.909 56.356 224.442 56.552C223.985 56.748 223.504 56.902 223 57.014C222.505 57.126 222.029 57.182 221.572 57.182C220.825 57.182 220.13 57.056 219.486 56.804C218.851 56.5427 218.296 56.1833 217.82 55.726C217.344 55.2687 216.975 54.7273 216.714 54.102C216.453 53.4767 216.322 52.8047 216.322 52.086C216.322 51.3673 216.457 50.7 216.728 50.084C216.999 49.468 217.377 48.9313 217.862 48.474C218.357 48.0167 218.931 47.662 219.584 47.41C220.247 47.158 220.965 47.032 221.74 47.032C222.225 47.032 222.711 47.0927 223.196 47.214C223.691 47.3353 224.157 47.5033 224.596 47.718C225.044 47.9327 225.436 48.194 225.772 48.502L224.316 50.266ZM223.448 52.002H225.66V55.894H223.448V52.002Z" fill="black"/>
<rect x="211" y="42" width="5" height="1" fill="black"/>
<rect x="211" y="61" width="5" height="1" fill="black"/>
<rect x="213" y="43" width="1" height="18" fill="black"/>
<rect x="225" y="72" width="14" height="1" fill="black"/>
<rect x="225" y="86" width="14" height="1" fill="black"/>
<path d="M230.098 75.186H238.512V77.258H235.572V85H233.01V77.258H230.098V75.186Z" fill="black"/>
</g>
<defs>
<clipPath id="clip0_9_408">
<rect width="270" height="115" fill="white"/>
</clipPath>
</defs>
</svg>
