<svg width="270" height="115" viewBox="0 0 270 115" fill="none" xmlns="http://www.w3.org/2000/svg">
<g clip-path="url(#clip0_9_324)">
<rect x="-11.0941" y="-12" width="200.922" height="2" transform="rotate(26.9338 -11.0941 -12)" fill="black"/>
<rect x="-8.25647" y="-5.68665" width="200.922" height="2" transform="rotate(26.7325 -8.25647 -5.68665)" fill="black"/>
<rect x="43.3287" y="-3.3241" width="138.234" height="2" transform="rotate(26.9216 43.3287 -3.3241)" fill="black"/>
<rect x="67.9055" y="-3" width="122.19" height="2" transform="rotate(26.9216 67.9055 -3)" fill="black"/>
<rect x="117.914" y="-5" width="126.434" height="2" transform="rotate(27.1979 117.914 -5)" fill="black"/>
<path d="M83.952 53.186H86.514V60.844H90.672V63H83.952V53.186Z" fill="black"/>
<rect x="167" y="93" width="68" height="1" fill="black"/>
<rect x="245" y="53" width="33" height="1" transform="rotate(90 245 53)" fill="black"/>
<path d="M194.972 98.186H197.73L199.942 106.418H199.382L201.594 98.186H204.1L206.34 106.418H205.78L207.978 98.186H210.61L207.292 108H204.66L202.504 100.23L203.092 100.244L200.908 108H198.276L194.972 98.186Z" fill="black"/>
<path d="M246.952 64.186H249.514V68.204H253.476V64.186H256.038V74H253.476V70.22H249.514V74H246.952V64.186Z" fill="black"/>
<rect x="235" y="91" width="1" height="5" fill="black"/>
<rect x="247" y="86" width="1" height="5" transform="rotate(90 247 86)" fill="black"/>
<rect x="166" y="91" width="1" height="5" fill="black"/>
<rect x="247" y="52" width="1" height="5" transform="rotate(90 247 52)" fill="black"/>
<rect x="165" y="52" width="70" height="35" rx="8" fill="black"/>
<path d="M157.83 45.99C158.763 45.99 159.483 46.2067 159.99 46.64C160.497 47.0667 160.75 47.67 160.75 48.45C160.75 49.27 160.497 49.91 159.99 50.37C159.483 50.8233 158.763 51.05 157.83 51.05H156.51V53H154.68V45.99H157.83ZM157.83 49.61C158.21 49.61 158.5 49.5167 158.7 49.33C158.907 49.1433 159.01 48.8667 159.01 48.5C159.01 48.1467 158.907 47.88 158.7 47.7C158.5 47.52 158.21 47.43 157.83 47.43H156.51V49.61H157.83ZM157.51 50.38H159.29L160.96 53H158.89L157.51 50.38Z" fill="black"/>
</g>
<defs>
<clipPath id="clip0_9_324">
<rect width="270" height="115" fill="white"/>
</clipPath>
</defs>
</svg>
