<svg width="250" height="115" viewBox="0 0 250 115" fill="none" xmlns="http://www.w3.org/2000/svg">
<g clip-path="url(#clip0_9_311)">
<rect x="21.6763" y="-2.82178" width="168.863" height="2" transform="rotate(27.4491 21.6763 -2.82178)" fill="black"/>
<rect x="-3.84918" y="-9.4574" width="202.418" height="2" transform="rotate(27.355 -3.84918 -9.4574)" fill="black"/>
<rect x="106.289" y="-2.46899" width="68.6211" height="2" transform="rotate(26.9216 106.289 -2.46899)" fill="black"/>
<rect x="144.445" y="-2.04651" width="42.2203" height="2" transform="rotate(26.9216 144.445 -2.04651)" fill="black"/>
<rect x="185.919" y="-2" width="41.6842" height="2" transform="rotate(27.3423 185.919 -2)" fill="black"/>
<path d="M89.952 53.186H92.514V60.844H96.672V63H89.952V53.186Z" fill="black"/>
<rect x="167" y="93" width="68" height="1" fill="black"/>
<path d="M194.972 98.186H197.73L199.942 106.418H199.382L201.594 98.186H204.1L206.34 106.418H205.78L207.978 98.186H210.61L207.292 108H204.66L202.504 100.23L203.092 100.244L200.908 108H198.276L194.972 98.186Z" fill="black"/>
<rect x="235" y="91" width="1" height="5" fill="black"/>
<rect x="166" y="91" width="1" height="5" fill="black"/>
<rect x="166" y="17" width="70" height="70" rx="16" fill="black"/>
<path d="M162.362 12.186C163.669 12.186 164.677 12.4893 165.386 13.096C166.095 13.6933 166.45 14.538 166.45 15.63C166.45 16.778 166.095 17.674 165.386 18.318C164.677 18.9527 163.669 19.27 162.362 19.27H160.514V22H157.952V12.186H162.362ZM162.362 17.254C162.894 17.254 163.3 17.1233 163.58 16.862C163.869 16.6007 164.014 16.2133 164.014 15.7C164.014 15.2053 163.869 14.832 163.58 14.58C163.3 14.328 162.894 14.202 162.362 14.202H160.514V17.254H162.362ZM161.914 18.332H164.406L166.744 22H163.846L161.914 18.332Z" fill="black"/>
</g>
<defs>
<clipPath id="clip0_9_311">
<rect width="250" height="115" fill="white"/>
</clipPath>
</defs>
</svg>
