<svg width="270" height="115" viewBox="0 0 270 115" fill="none" xmlns="http://www.w3.org/2000/svg">
<g clip-path="url(#clip0_9_386)">
<rect x="-11.9802" y="-6.21899" width="200.922" height="2" transform="rotate(27.0623 -11.9802 -6.21899)" fill="black"/>
<rect x="120.121" y="-2.94604" width="51.9024" height="2" transform="rotate(23.5194 120.121 -2.94604)" fill="black"/>
<path d="M89.952 53.186H92.514V60.844H96.672V63H89.952V53.186Z" fill="black"/>
<rect x="167" y="93" width="59" height="1" fill="black"/>
<path d="M189.972 98.186H192.73L194.942 106.418H194.382L196.594 98.186H199.1L201.34 106.418H200.78L202.978 98.186H205.61L202.292 108H199.66L197.504 100.23L198.092 100.244L195.908 108H193.276L189.972 98.186Z" fill="black"/>
<rect x="225" y="91" width="1" height="5" fill="black"/>
<rect x="166" y="91" width="1" height="5" fill="black"/>
<rect x="166" y="17" width="16" height="70" fill="black"/>
<rect x="181" y="71" width="45" height="16" fill="black"/>
<rect x="181" y="17" width="45" height="16" fill="black"/>
<rect x="181" y="44" width="45" height="16" fill="black"/>
<rect x="226" y="71" width="21" height="1" fill="black"/>
<rect x="226" y="44" width="21" height="1" fill="black"/>
<rect x="226" y="86" width="21" height="1" fill="black"/>
<rect x="226" y="59" width="21" height="1" fill="black"/>
<path d="M228.098 74.186H236.512V76.258H233.572V84H231.01V76.258H228.098V74.186ZM240.163 74.186H244.615V84H242.053V75.138L243.173 76.258H240.163V74.186Z" fill="black"/>
<path d="M228.098 47.186H236.512V49.258H233.572V57H231.01V49.258H228.098V47.186ZM240.688 51.652C240.968 51.3627 241.196 51.0733 241.374 50.784C241.551 50.4853 241.64 50.2287 241.64 50.014C241.64 49.7433 241.542 49.5333 241.346 49.384C241.15 49.2347 240.874 49.16 240.52 49.16C240.118 49.16 239.68 49.272 239.204 49.496C238.728 49.72 238.266 50.0187 237.818 50.392L236.838 48.544C237.472 48.0867 238.13 47.732 238.812 47.48C239.493 47.2187 240.193 47.088 240.912 47.088C241.574 47.088 242.162 47.1953 242.676 47.41C243.189 47.6153 243.59 47.9093 243.88 48.292C244.178 48.6747 244.328 49.1273 244.328 49.65C244.328 50.182 244.146 50.7233 243.782 51.274C243.427 51.8153 242.974 52.3613 242.424 52.912L239.624 55.754L239.288 54.97H244.608V57H237.132L237.118 55.334L240.688 51.652Z" fill="black"/>
<rect x="253" y="18" width="68" height="1" transform="rotate(90 253 18)" fill="black"/>
<path d="M254.952 44.186H257.514V48.204H261.476V44.186H264.038V54H261.476V50.22H257.514V54H254.952V44.186Z" fill="black"/>
<rect x="255" y="86" width="1" height="5" transform="rotate(90 255 86)" fill="black"/>
<rect x="255" y="17" width="1" height="5" transform="rotate(90 255 17)" fill="black"/>
<rect x="183.938" y="-2.44531" width="46.3449" height="2" transform="rotate(24.8287 183.938 -2.44531)" fill="black"/>
</g>
<defs>
<clipPath id="clip0_9_386">
<rect width="270" height="115" fill="white"/>
</clipPath>
</defs>
</svg>
