<svg width="250" height="115" viewBox="0 0 250 115" fill="none" xmlns="http://www.w3.org/2000/svg">
<g clip-path="url(#clip0_5_81)">
<rect x="0.0362549" y="-0.250244" width="198.656" height="2" transform="rotate(27.0845 0.0362549 -0.250244)" fill="black"/>
<rect x="128.178" y="-2.27588" width="55.7362" height="2" transform="rotate(26.9216 128.178 -2.27588)" fill="black"/>
<rect x="165.719" y="-2.65833" width="55.9942" height="2" transform="rotate(26.1225 165.719 -2.65833)" fill="black"/>
<rect x="44.7847" y="-1.89691" width="129.072" height="2" transform="rotate(26.9216 44.7847 -1.89691)" fill="black"/>
<path d="M88.952 53.186H91.514V60.844H95.672V63H88.952V53.186Z" fill="black"/>
<rect x="167" y="97" width="68" height="1" fill="black"/>
<path d="M201.18 101.186C201.955 101.186 202.659 101.307 203.294 101.55C203.938 101.783 204.489 102.119 204.946 102.558C205.413 102.987 205.772 103.501 206.024 104.098C206.276 104.695 206.402 105.358 206.402 106.086C206.402 106.823 206.271 107.491 206.01 108.088C205.758 108.685 205.399 109.203 204.932 109.642C204.465 110.081 203.905 110.417 203.252 110.65C202.599 110.883 201.875 111 201.082 111H196.952V101.186H201.18ZM201.25 108.956C201.623 108.956 201.964 108.891 202.272 108.76C202.58 108.62 202.846 108.424 203.07 108.172C203.303 107.92 203.481 107.621 203.602 107.276C203.723 106.921 203.784 106.534 203.784 106.114C203.784 105.685 203.719 105.297 203.588 104.952C203.457 104.597 203.271 104.294 203.028 104.042C202.795 103.781 202.515 103.585 202.188 103.454C201.871 103.314 201.516 103.244 201.124 103.244H199.514V108.956H201.25Z" fill="black"/>
<rect x="235" y="95" width="1" height="5" fill="black"/>
<rect x="166" y="95" width="1" height="5" fill="black"/>
<path d="M156 57L176 22H216.001L236 57L216.001 92H176L156 57Z" fill="black"/>
</g>
<defs>
<clipPath id="clip0_5_81">
<rect width="250" height="115" fill="white"/>
</clipPath>
</defs>
</svg>
