<svg width="250" height="115" viewBox="0 0 250 115" fill="none" xmlns="http://www.w3.org/2000/svg">
<g clip-path="url(#clip0_5_133)">
<rect x="0.0362549" y="-0.250244" width="198.656" height="2" transform="rotate(27.0845 0.0362549 -0.250244)" fill="black"/>
<rect x="128.178" y="-2.27588" width="55.7362" height="2" transform="rotate(26.9216 128.178 -2.27588)" fill="black"/>
<rect x="165.719" y="-2.65833" width="55.9942" height="2" transform="rotate(26.1225 165.719 -2.65833)" fill="black"/>
<rect x="44.7847" y="-1.89691" width="129.072" height="2" transform="rotate(26.9216 44.7847 -1.89691)" fill="black"/>
<path d="M88.952 53.186H91.514V60.844H95.672V63H88.952V53.186Z" fill="black"/>
<rect x="167" y="97" width="68" height="1" fill="black"/>
<path d="M200.18 100.186C200.955 100.186 201.659 100.307 202.294 100.55C202.938 100.783 203.489 101.119 203.946 101.558C204.413 101.987 204.772 102.501 205.024 103.098C205.276 103.695 205.402 104.358 205.402 105.086C205.402 105.823 205.271 106.491 205.01 107.088C204.758 107.685 204.399 108.203 203.932 108.642C203.465 109.081 202.905 109.417 202.252 109.65C201.599 109.883 200.875 110 200.082 110H195.952V100.186H200.18ZM200.25 107.956C200.623 107.956 200.964 107.891 201.272 107.76C201.58 107.62 201.846 107.424 202.07 107.172C202.303 106.92 202.481 106.621 202.602 106.276C202.723 105.921 202.784 105.534 202.784 105.114C202.784 104.685 202.719 104.297 202.588 103.952C202.457 103.597 202.271 103.294 202.028 103.042C201.795 102.781 201.515 102.585 201.188 102.454C200.871 102.314 200.516 102.244 200.124 102.244H198.514V107.956H200.25Z" fill="black"/>
<rect x="235" y="95" width="1" height="5" fill="black"/>
<rect x="166" y="95" width="1" height="5" fill="black"/>
<path d="M156 57L176 22H216.001L236 57L216.001 92H176L156 57Z" fill="black"/>
<circle cx="196" cy="57" r="25" fill="white" fill-opacity="0.9"/>
<path d="M188.952 43.186H191.514V53H188.952V43.186ZM197.651 43.186C198.425 43.186 199.13 43.3073 199.765 43.55C200.409 43.7833 200.959 44.1193 201.417 44.558C201.883 44.9873 202.243 45.5007 202.495 46.098C202.747 46.6953 202.873 47.358 202.873 48.086C202.873 48.8233 202.742 49.4907 202.481 50.088C202.229 50.6853 201.869 51.2033 201.403 51.642C200.936 52.0807 200.376 52.4167 199.723 52.65C199.069 52.8833 198.346 53 197.553 53H193.423V43.186H197.651ZM197.721 50.956C198.094 50.956 198.435 50.8907 198.743 50.76C199.051 50.62 199.317 50.424 199.541 50.172C199.774 49.92 199.951 49.6213 200.073 49.276C200.194 48.9213 200.255 48.534 200.255 48.114C200.255 47.6847 200.189 47.2973 200.059 46.952C199.928 46.5973 199.741 46.294 199.499 46.042C199.265 45.7807 198.985 45.5847 198.659 45.454C198.341 45.314 197.987 45.244 197.595 45.244H195.985V50.956H197.721Z" fill="black"/>
<rect x="172" y="57" width="49" height="1" fill="black"/>
<rect x="220" y="55" width="1" height="5" fill="black"/>
<rect x="171" y="55" width="1" height="5" fill="black"/>
</g>
<defs>
<clipPath id="clip0_5_133">
<rect width="250" height="115" fill="white"/>
</clipPath>
</defs>
</svg>
