<svg width="250" height="115" viewBox="0 0 250 115" fill="none" xmlns="http://www.w3.org/2000/svg">
<g clip-path="url(#clip0_5_94)">
<rect x="1.75558" y="-4.34375" width="207.435" height="2" transform="rotate(26.6945 1.75558 -4.34375)" fill="black"/>
<rect x="139.906" y="-3" width="53.5507" height="2" transform="rotate(26.9216 139.906 -3)" fill="black"/>
<rect x="80.9757" y="-2.75305" width="97.1547" height="2" transform="rotate(26.9216 80.9757 -2.75305)" fill="black"/>
<rect x="165.881" y="-3" width="55.3902" height="2" transform="rotate(26.1225 165.881 -3)" fill="black"/>
<rect x="27.0168" y="-2.14636" width="158.108" height="2" transform="rotate(26.9216 27.0168 -2.14636)" fill="black"/>
<path d="M100.952 53.186H103.514V60.844H107.672V63H100.952V53.186Z" fill="black"/>
<rect x="167" y="97" width="68" height="1" fill="black"/>
<path d="M201.18 101.186C201.955 101.186 202.659 101.307 203.294 101.55C203.938 101.783 204.489 102.119 204.946 102.558C205.413 102.987 205.772 103.501 206.024 104.098C206.276 104.695 206.402 105.358 206.402 106.086C206.402 106.823 206.271 107.491 206.01 108.088C205.758 108.685 205.399 109.203 204.932 109.642C204.465 110.081 203.905 110.417 203.252 110.65C202.599 110.883 201.875 111 201.082 111H196.952V101.186H201.18ZM201.25 108.956C201.623 108.956 201.964 108.891 202.272 108.76C202.58 108.62 202.846 108.424 203.07 108.172C203.303 107.92 203.481 107.621 203.602 107.276C203.723 106.921 203.784 106.534 203.784 106.114C203.784 105.685 203.719 105.297 203.588 104.952C203.457 104.597 203.271 104.294 203.028 104.042C202.795 103.781 202.515 103.585 202.188 103.454C201.871 103.314 201.516 103.244 201.124 103.244H199.514V108.956H201.25Z" fill="black"/>
<rect x="235" y="95" width="1" height="5" fill="black"/>
<rect x="166" y="95" width="1" height="5" fill="black"/>
<path d="M214.593 21C215.172 21.0001 215.728 21.2298 216.138 21.6387L235.361 40.8625C235.77 41.2725 236 41.8278 236 42.4069V69.5931C236 70.1722 235.77 70.7275 235.361 71.1375L216.138 90.3613C215.728 90.7702 215.172 90.9999 214.593 91H187.407C186.828 90.9999 186.272 90.7702 185.862 90.3613L166.639 71.1375C166.23 70.7275 166 70.1722 166 69.5931V42.4069C166 41.8278 166.23 41.2725 166.639 40.8625L185.862 21.6387C186.272 21.2298 186.828 21.0001 187.407 21H214.593Z" fill="black"/>
</g>
<defs>
<clipPath id="clip0_5_94">
<rect width="250" height="115" fill="white"/>
</clipPath>
</defs>
</svg>
