<svg width="250" height="115" viewBox="0 0 250 115" fill="none" xmlns="http://www.w3.org/2000/svg">
<g clip-path="url(#clip0_5_119)">
<rect x="3.90552" y="-5" width="200" height="2" transform="rotate(26.9216 3.90552 -5)" fill="black"/>
<rect x="151.267" y="-4.9892" width="80.7105" height="2" transform="rotate(26.9216 151.267 -4.9892)" fill="black"/>
<path d="M96.952 48.186H99.514V55.844H103.672V58H96.952V48.186Z" fill="black"/>
<rect x="166" y="96" width="68" height="1" fill="black"/>
<path d="M194.628 100.032C195.393 100.032 196.093 100.158 196.728 100.41C197.372 100.662 197.932 101.017 198.408 101.474C198.893 101.931 199.267 102.468 199.528 103.084C199.799 103.691 199.934 104.353 199.934 105.072C199.934 105.8 199.799 106.477 199.528 107.102C199.267 107.718 198.893 108.259 198.408 108.726C197.932 109.183 197.372 109.543 196.728 109.804C196.093 110.056 195.393 110.182 194.628 110.182C193.872 110.182 193.172 110.056 192.528 109.804C191.884 109.543 191.319 109.183 190.834 108.726C190.358 108.259 189.985 107.718 189.714 107.102C189.453 106.477 189.322 105.8 189.322 105.072C189.322 104.353 189.453 103.686 189.714 103.07C189.985 102.454 190.358 101.922 190.834 101.474C191.319 101.017 191.884 100.662 192.528 100.41C193.172 100.158 193.872 100.032 194.628 100.032ZM194.656 102.174C194.292 102.174 193.942 102.249 193.606 102.398C193.279 102.538 192.99 102.743 192.738 103.014C192.495 103.275 192.304 103.583 192.164 103.938C192.024 104.283 191.954 104.666 191.954 105.086C191.954 105.497 192.024 105.884 192.164 106.248C192.304 106.603 192.5 106.915 192.752 107.186C193.004 107.447 193.293 107.653 193.62 107.802C193.947 107.951 194.292 108.026 194.656 108.026C195.02 108.026 195.361 107.951 195.678 107.802C196.005 107.653 196.289 107.447 196.532 107.186C196.775 106.915 196.961 106.603 197.092 106.248C197.232 105.884 197.302 105.497 197.302 105.086C197.302 104.666 197.232 104.283 197.092 103.938C196.961 103.583 196.775 103.275 196.532 103.014C196.289 102.743 196.005 102.538 195.678 102.398C195.361 102.249 195.02 102.174 194.656 102.174ZM205.432 100.186C206.207 100.186 206.911 100.307 207.546 100.55C208.19 100.783 208.741 101.119 209.198 101.558C209.665 101.987 210.024 102.501 210.276 103.098C210.528 103.695 210.654 104.358 210.654 105.086C210.654 105.823 210.523 106.491 210.262 107.088C210.01 107.685 209.651 108.203 209.184 108.642C208.717 109.081 208.157 109.417 207.504 109.65C206.851 109.883 206.127 110 205.334 110H201.204V100.186H205.432ZM205.502 107.956C205.875 107.956 206.216 107.891 206.524 107.76C206.832 107.62 207.098 107.424 207.322 107.172C207.555 106.92 207.733 106.621 207.854 106.276C207.975 105.921 208.036 105.534 208.036 105.114C208.036 104.685 207.971 104.297 207.84 103.952C207.709 103.597 207.523 103.294 207.28 103.042C207.047 102.781 206.767 102.585 206.44 102.454C206.123 102.314 205.768 102.244 205.376 102.244H203.766V107.956H205.502Z" fill="black"/>
<rect x="234" y="94" width="1" height="5" fill="black"/>
<rect x="165" y="94" width="1" height="5" fill="black"/>
<circle cx="200" cy="58" r="35" fill="black"/>
<circle cx="200" cy="58" r="25" fill="white" fill-opacity="0.9"/>
<path d="M191.952 43.186H194.514V53H191.952V43.186ZM200.651 43.186C201.425 43.186 202.13 43.3073 202.765 43.55C203.409 43.7833 203.959 44.1193 204.417 44.558C204.883 44.9873 205.243 45.5007 205.495 46.098C205.747 46.6953 205.873 47.358 205.873 48.086C205.873 48.8233 205.742 49.4907 205.481 50.088C205.229 50.6853 204.869 51.2033 204.403 51.642C203.936 52.0807 203.376 52.4167 202.723 52.65C202.069 52.8833 201.346 53 200.553 53H196.423V43.186H200.651ZM200.721 50.956C201.094 50.956 201.435 50.8907 201.743 50.76C202.051 50.62 202.317 50.424 202.541 50.172C202.774 49.92 202.951 49.6213 203.073 49.276C203.194 48.9213 203.255 48.534 203.255 48.114C203.255 47.6847 203.189 47.2973 203.059 46.952C202.928 46.5973 202.741 46.294 202.499 46.042C202.265 45.7807 201.985 45.5847 201.659 45.454C201.341 45.314 200.987 45.244 200.595 45.244H198.985V50.956H200.721Z" fill="black"/>
<rect x="176" y="58" width="49" height="1" fill="black"/>
<rect x="224" y="56" width="1" height="5" fill="black"/>
<rect x="175" y="56" width="1" height="5" fill="black"/>
</g>
<defs>
<clipPath id="clip0_5_119">
<rect width="250" height="115" fill="white"/>
</clipPath>
</defs>
</svg>
