<svg width="280" height="115" viewBox="0 0 280 115" fill="none" xmlns="http://www.w3.org/2000/svg">
<g clip-path="url(#clip0_6_185)">
<rect x="-13.1943" y="-5.80029" width="200.922" height="2" transform="rotate(26.9338 -13.1943 -5.80029)" fill="black"/>
<rect x="62.0471" y="-3.26599" width="122.021" height="2" transform="rotate(27.2117 62.0471 -3.26599)" fill="black"/>
<rect x="124.829" y="-4.61707" width="123.865" height="2" transform="rotate(27.1979 124.829 -4.61707)" fill="black"/>
<path d="M83.952 53.186H86.514V60.844H90.672V63H83.952V53.186Z" fill="black"/>
<rect x="167" y="93" width="68" height="1" fill="black"/>
<rect x="256" y="53" width="33" height="1" transform="rotate(90 256 53)" fill="black"/>
<path d="M194.972 98.186H197.73L199.942 106.418H199.382L201.594 98.186H204.1L206.34 106.418H205.78L207.978 98.186H210.61L207.292 108H204.66L202.504 100.23L203.092 100.244L200.908 108H198.276L194.972 98.186Z" fill="black"/>
<path d="M240.063 78.691H245.472V80.023H243.582V85H241.935V80.023H240.063V78.691Z" fill="black"/>
<path d="M258.952 64.186H261.514V68.204H265.476V64.186H268.038V74H265.476V70.22H261.514V74H258.952V64.186Z" fill="black"/>
<rect x="235" y="91" width="1" height="5" fill="black"/>
<rect x="258" y="86" width="1" height="5" transform="rotate(90 258 86)" fill="black"/>
<rect x="166" y="91" width="1" height="5" fill="black"/>
<rect x="258" y="52" width="1" height="5" transform="rotate(90 258 52)" fill="black"/>
<rect x="165" y="52" width="70" height="35" fill="black"/>
<rect x="175" y="62" width="50" height="15" fill="#D9D9D9" fill-opacity="0.9"/>
<rect x="235" y="77" width="11" height="1" fill="black"/>
<rect x="235" y="86" width="11" height="1" fill="black"/>
</g>
<defs>
<clipPath id="clip0_6_185">
<rect width="280" height="115" fill="white"/>
</clipPath>
</defs>
</svg>
