<svg width="270" height="115" viewBox="0 0 270 115" fill="none" xmlns="http://www.w3.org/2000/svg">
<g clip-path="url(#clip0_5_67)">
<rect x="-13.1943" y="-5.80023" width="200.922" height="2" transform="rotate(26.9338 -13.1943 -5.80023)" fill="black"/>
<rect x="60.9055" y="-2" width="119.018" height="2" transform="rotate(26.9216 60.9055 -2)" fill="black"/>
<rect x="124.829" y="-4.61713" width="123.865" height="2" transform="rotate(27.1979 124.829 -4.61713)" fill="black"/>
<path d="M83.952 53.186H86.514V60.844H90.672V63H83.952V53.186Z" fill="black"/>
<rect x="167" y="94" width="68" height="1" fill="black"/>
<rect x="244" y="53" width="33" height="1" transform="rotate(90 244 53)" fill="black"/>
<path d="M194.972 98.186H197.73L199.942 106.418H199.382L201.594 98.186H204.1L206.34 106.418H205.78L207.978 98.186H210.61L207.292 108H204.66L202.504 100.23L203.092 100.244L200.908 108H198.276L194.972 98.186Z" fill="black"/>
<path d="M246.952 64.186H249.514V68.204H253.476V64.186H256.038V74H253.476V70.22H249.514V74H246.952V64.186Z" fill="black"/>
<rect x="235" y="92" width="1" height="5" fill="black"/>
<rect x="246" y="86" width="1" height="5" transform="rotate(90 246 86)" fill="black"/>
<rect x="166" y="92" width="1" height="5" fill="black"/>
<rect x="246" y="52" width="1" height="5" transform="rotate(90 246 52)" fill="black"/>
<rect x="165" y="52" width="70" height="35" fill="black"/>
</g>
<defs>
<clipPath id="clip0_5_67">
<rect width="270" height="115" fill="white"/>
</clipPath>
</defs>
</svg>
