<svg width="250" height="115" viewBox="0 0 250 115" fill="none" xmlns="http://www.w3.org/2000/svg">
<g clip-path="url(#clip0_4_48)">
<rect x="3.90552" y="-5" width="200" height="2" transform="rotate(26.9216 3.90552 -5)" fill="black"/>
<rect x="152.047" y="-6.25824" width="72.4518" height="2" transform="rotate(27.3872 152.047 -6.25824)" fill="black"/>
<path d="M96.952 48.186H99.514V55.844H103.672V58H96.952V48.186Z" fill="black"/>
<rect x="166" y="96" width="68" height="1" fill="black"/>
<path d="M200.18 99.186C200.955 99.186 201.659 99.3073 202.294 99.55C202.938 99.7833 203.489 100.119 203.946 100.558C204.413 100.987 204.772 101.501 205.024 102.098C205.276 102.695 205.402 103.358 205.402 104.086C205.402 104.823 205.271 105.491 205.01 106.088C204.758 106.685 204.399 107.203 203.932 107.642C203.465 108.081 202.905 108.417 202.252 108.65C201.599 108.883 200.875 109 200.082 109H195.952V99.186H200.18ZM200.25 106.956C200.623 106.956 200.964 106.891 201.272 106.76C201.58 106.62 201.846 106.424 202.07 106.172C202.303 105.92 202.481 105.621 202.602 105.276C202.723 104.921 202.784 104.534 202.784 104.114C202.784 103.685 202.719 103.297 202.588 102.952C202.457 102.597 202.271 102.294 202.028 102.042C201.795 101.781 201.515 101.585 201.188 101.454C200.871 101.314 200.516 101.244 200.124 101.244H198.514V106.956H200.25Z" fill="black"/>
<rect x="234" y="94" width="1" height="5" fill="black"/>
<rect x="165" y="94" width="1" height="5" fill="black"/>
<circle cx="200" cy="58" r="35" fill="black"/>
</g>
<defs>
<clipPath id="clip0_4_48">
<rect width="250" height="115" fill="white"/>
</clipPath>
</defs>
</svg>
