<svg width="160" height="115" viewBox="0 0 160 115" fill="none" xmlns="http://www.w3.org/2000/svg">
<rect x="46" y="85" width="68" height="1" fill="black"/>
<path d="M79.18 90.186C79.9547 90.186 80.6593 90.3073 81.294 90.55C81.938 90.7833 82.4887 91.1193 82.946 91.558C83.4127 91.9873 83.772 92.5007 84.024 93.098C84.276 93.6953 84.402 94.358 84.402 95.086C84.402 95.8233 84.2713 96.4907 84.01 97.088C83.758 97.6853 83.3987 98.2033 82.932 98.642C82.4653 99.0807 81.9053 99.4167 81.252 99.65C80.5987 99.8833 79.8753 100 79.082 100H74.952V90.186H79.18ZM79.25 97.956C79.6233 97.956 79.964 97.8907 80.272 97.76C80.58 97.62 80.846 97.424 81.07 97.172C81.3033 96.92 81.4807 96.6213 81.602 96.276C81.7233 95.9213 81.784 95.534 81.784 95.114C81.784 94.6847 81.7187 94.2973 81.588 93.952C81.4573 93.5973 81.2707 93.294 81.028 93.042C80.7947 92.7807 80.5147 92.5847 80.188 92.454C79.8707 92.314 79.516 92.244 79.124 92.244H77.514V97.956H79.25Z" fill="black"/>
<rect x="114" y="83" width="1" height="5" fill="black"/>
<rect x="45" y="83" width="1" height="5" fill="black"/>
<circle cx="80" cy="48" r="35" fill="black"/>
</svg>
