<svg width="250" height="115" viewBox="0 0 250 115" fill="none" xmlns="http://www.w3.org/2000/svg">
<g clip-path="url(#clip0_5_57)">
<rect x="-11.9802" y="-6.21893" width="200.922" height="2" transform="rotate(27.0623 -11.9802 -6.21893)" fill="black"/>
<rect x="129.906" y="-2" width="45.4991" height="2" transform="rotate(26.9216 129.906 -2)" fill="black"/>
<rect x="198.982" y="-2.13275" width="41.6842" height="2" transform="rotate(27.3423 198.982 -2.13275)" fill="black"/>
<path d="M89.952 53.186H92.514V60.844H96.672V63H89.952V53.186Z" fill="black"/>
<rect x="167" y="94" width="68" height="1" fill="black"/>
<path d="M194.972 98.186H197.73L199.942 106.418H199.382L201.594 98.186H204.1L206.34 106.418H205.78L207.978 98.186H210.61L207.292 108H204.66L202.504 100.23L203.092 100.244L200.908 108H198.276L194.972 98.186Z" fill="black"/>
<rect x="235" y="92" width="1" height="5" fill="black"/>
<rect x="166" y="92" width="1" height="5" fill="black"/>
<rect x="166" y="17" width="70" height="70" fill="black"/>
</g>
<defs>
<clipPath id="clip0_5_57">
<rect width="250" height="115" fill="white"/>
</clipPath>
</defs>
</svg>
