<svg width="250" height="115" viewBox="0 0 250 115" fill="none" xmlns="http://www.w3.org/2000/svg">
<g clip-path="url(#clip0_5_153)">
<rect x="-11.9802" y="-6.21893" width="200.922" height="2" transform="rotate(27.0623 -11.9802 -6.21893)" fill="black"/>
<rect x="129.906" y="-2" width="45.4991" height="2" transform="rotate(26.9216 129.906 -2)" fill="black"/>
<rect x="198.982" y="-2.13275" width="41.6842" height="2" transform="rotate(27.3423 198.982 -2.13275)" fill="black"/>
<path d="M89.952 53.186H92.514V60.844H96.672V63H89.952V53.186Z" fill="black"/>
<rect x="167" y="94" width="68" height="1" fill="black"/>
<path d="M194.972 98.186H197.73L199.942 106.418H199.382L201.594 98.186H204.1L206.34 106.418H205.78L207.978 98.186H210.61L207.292 108H204.66L202.504 100.23L203.092 100.244L200.908 108H198.276L194.972 98.186Z" fill="black"/>
<rect x="235" y="92" width="1" height="5" fill="black"/>
<rect x="166" y="92" width="1" height="5" fill="black"/>
<rect x="166" y="17" width="70" height="70" fill="black"/>
<circle cx="202" cy="52" r="25" fill="white" fill-opacity="0.9"/>
<path d="M194.952 40.186H197.514V50H194.952V40.186ZM203.651 40.186C204.425 40.186 205.13 40.3073 205.765 40.55C206.409 40.7833 206.959 41.1193 207.417 41.558C207.883 41.9873 208.243 42.5007 208.495 43.098C208.747 43.6953 208.873 44.358 208.873 45.086C208.873 45.8233 208.742 46.4907 208.481 47.088C208.229 47.6853 207.869 48.2033 207.403 48.642C206.936 49.0807 206.376 49.4167 205.723 49.65C205.069 49.8833 204.346 50 203.553 50H199.423V40.186H203.651ZM203.721 47.956C204.094 47.956 204.435 47.8907 204.743 47.76C205.051 47.62 205.317 47.424 205.541 47.172C205.774 46.92 205.951 46.6213 206.073 46.276C206.194 45.9213 206.255 45.534 206.255 45.114C206.255 44.6847 206.189 44.2973 206.059 43.952C205.928 43.5973 205.741 43.294 205.499 43.042C205.265 42.7807 204.985 42.5847 204.659 42.454C204.341 42.314 203.987 42.244 203.595 42.244H201.985V47.956H203.721Z" fill="black"/>
<rect x="178" y="52" width="49" height="1" fill="black"/>
<rect x="226" y="50" width="1" height="5" fill="black"/>
<rect x="177" y="50" width="1" height="5" fill="black"/>
</g>
<defs>
<clipPath id="clip0_5_153">
<rect width="250" height="115" fill="white"/>
</clipPath>
</defs>
</svg>
