<svg width="270" height="115" viewBox="0 0 270 115" fill="none" xmlns="http://www.w3.org/2000/svg">
<g clip-path="url(#clip0_5_174)">
<rect x="-11.9802" y="-6.21887" width="200.922" height="2" transform="rotate(27.0623 -11.9802 -6.21887)" fill="black"/>
<rect x="130.906" y="-3" width="45.4991" height="2" transform="rotate(26.9216 130.906 -3)" fill="black"/>
<rect x="198.982" y="-2.13281" width="41.6842" height="2" transform="rotate(27.3423 198.982 -2.13281)" fill="black"/>
<path d="M89.952 53.186H92.514V60.844H96.672V63H89.952V53.186Z" fill="black"/>
<rect x="167" y="93" width="68" height="1" fill="black"/>
<path d="M194.972 98.186H197.73L199.942 106.418H199.382L201.594 98.186H204.1L206.34 106.418H205.78L207.978 98.186H210.61L207.292 108H204.66L202.504 100.23L203.092 100.244L200.908 108H198.276L194.972 98.186Z" fill="black"/>
<rect x="235" y="91" width="1" height="5" fill="black"/>
<rect x="166" y="91" width="1" height="5" fill="black"/>
<rect x="166" y="17" width="70" height="70" fill="black"/>
<rect x="181" y="32" width="40" height="40" fill="#D9D9D9" fill-opacity="0.9"/>
<path d="M243.084 75.588H250.296V77.364H247.776V84H245.58V77.364H243.084V75.588Z" fill="black"/>
<rect x="251" y="86" width="1" height="15" transform="rotate(90 251 86)" fill="black"/>
<rect x="251" y="72" width="1" height="15" transform="rotate(90 251 72)" fill="black"/>
</g>
<defs>
<clipPath id="clip0_5_174">
<rect width="270" height="115" fill="white"/>
</clipPath>
</defs>
</svg>
