<svg width="270" height="115" viewBox="0 0 270 115" fill="none" xmlns="http://www.w3.org/2000/svg">
<g clip-path="url(#clip0_9_252)">
<rect x="-13.1944" y="-5.80029" width="200.922" height="2" transform="rotate(26.9338 -13.1944 -5.80029)" fill="black"/>
<rect x="77.7594" y="-17.722" width="118.259" height="2" transform="rotate(26.6174 77.7594 -17.722)" fill="black"/>
<rect x="129.123" y="-11.3834" width="99.8158" height="2" transform="rotate(27.6985 129.123 -11.3834)" fill="black"/>
<path d="M83.952 53.186H86.514V60.844H90.672V63H83.952V53.186Z" fill="black"/>
<rect x="167" y="93" width="68" height="1" fill="black"/>
<rect x="244" y="36" width="50" height="1" transform="rotate(90 244 36)" fill="black"/>
<path d="M194.972 98.186H197.73L199.942 106.418H199.382L201.594 98.186H204.1L206.34 106.418H205.78L207.978 98.186H210.61L207.292 108H204.66L202.504 100.23L203.092 100.244L200.908 108H198.276L194.972 98.186ZM214.149 98.186H218.601V108H216.039V99.138L217.159 100.258H214.149V98.186Z" fill="black"/>
<path d="M185.972 4.186H188.73L190.942 12.418H190.382L192.594 4.186H195.1L197.34 12.418H196.78L198.978 4.186H201.61L198.292 14H195.66L193.504 6.23L194.092 6.244L191.908 14H189.276L185.972 4.186ZM209.447 8.652C209.727 8.36267 209.956 8.07333 210.133 7.784C210.311 7.48533 210.399 7.22867 210.399 7.014C210.399 6.74333 210.301 6.53333 210.105 6.384C209.909 6.23467 209.634 6.16 209.279 6.16C208.878 6.16 208.439 6.272 207.963 6.496C207.487 6.72 207.025 7.01867 206.577 7.392L205.597 5.544C206.232 5.08667 206.89 4.732 207.571 4.48C208.253 4.21867 208.953 4.088 209.671 4.088C210.334 4.088 210.922 4.19533 211.435 4.41C211.949 4.61533 212.35 4.90933 212.639 5.292C212.938 5.67467 213.087 6.12733 213.087 6.65C213.087 7.182 212.905 7.72333 212.541 8.274C212.187 8.81533 211.734 9.36133 211.183 9.912L208.383 12.754L208.047 11.97H213.367V14H205.891L205.877 12.334L209.447 8.652Z" fill="black"/>
<path d="M246.952 53.186H249.514V57.204H253.476V53.186H256.038V63H253.476V59.22H249.514V63H246.952V53.186Z" fill="black"/>
<rect x="235" y="91" width="1" height="5" fill="black"/>
<rect x="217" y="4" width="1" height="31" fill="black"/>
<rect x="246" y="86" width="1" height="5" transform="rotate(90 246 86)" fill="black"/>
<rect x="166" y="91" width="1" height="5" fill="black"/>
<rect x="183" y="4" width="1" height="32" fill="black"/>
<rect x="246" y="35" width="1" height="5" transform="rotate(90 246 35)" fill="black"/>
<path d="M183 35H218L235 87H165L183 35Z" fill="black"/>
</g>
<defs>
<clipPath id="clip0_9_252">
<rect width="270" height="115" fill="white"/>
</clipPath>
</defs>
</svg>
