<svg width="270" height="115" viewBox="0 0 270 115" fill="none" xmlns="http://www.w3.org/2000/svg">
<g clip-path="url(#clip0_8_213)">
<rect x="-12.9854" y="-6.19958" width="202.265" height="2" transform="rotate(27.1889 -12.9854 -6.19958)" fill="black"/>
<rect x="94.9625" y="-36.1075" width="119.063" height="2" transform="rotate(27.0388 94.9625 -36.1075)" fill="black"/>
<path d="M83.952 53.186H86.514V60.844H90.672V63H83.952V53.186Z" fill="black"/>
<rect x="167" y="93" width="68" height="1" fill="black"/>
<rect x="244" y="18" width="69" height="1" transform="rotate(90 244 18)" fill="black"/>
<path d="M194.972 98.186H197.73L199.942 106.418H199.382L201.594 98.186H204.1L206.34 106.418H205.78L207.978 98.186H210.61L207.292 108H204.66L202.504 100.23L203.092 100.244L200.908 108H198.276L194.972 98.186Z" fill="black"/>
<path d="M246.952 48.186H249.514V52.204H253.476V48.186H256.038V58H253.476V54.22H249.514V58H246.952V48.186Z" fill="black"/>
<rect x="235" y="91" width="1" height="5" fill="black"/>
<rect x="246" y="87" width="1" height="5" transform="rotate(90 246 87)" fill="black"/>
<rect x="166" y="91" width="1" height="5" fill="black"/>
<path d="M236 88H166L201 18L236 88Z" fill="black"/>
<rect x="246" y="17" width="1" height="5" transform="rotate(90 246 17)" fill="black"/>
</g>
<defs>
<clipPath id="clip0_8_213">
<rect width="270" height="115" fill="white"/>
</clipPath>
</defs>
</svg>
